M48
; DRILL file {KiCad 9.0.2} date 2025-06-11T21:18:33+0530
; FORMAT={-:-/ absolute / metric / decimal}
; #@! TF.CreationDate,2025-06-11T21:18:33+05:30
; #@! TF.GenerationSoftware,Kicad,Pcbnew,9.0.2
; #@! TF.FileFunction,Plated,1,2,PTH
FMAT,2
METRIC
; #@! TA.AperFunction,Plated,PTH,ViaDrill
T1C0.300
; #@! TA.AperFunction,Plated,PTH,ComponentDrill
T2C0.400
; #@! TA.AperFunction,Plated,PTH,ComponentDrill
T3C0.600
; #@! TA.AperFunction,Plated,PTH,ComponentDrill
T4C1.000
%
G90
G05
T1
X96.775Y-104.093
X97.38Y-105.664
X102.658Y-105.335
X103.735Y-98.59
X107.681Y-97.899
X109.162Y-97.552
X112.651Y-98.397
T2
X118.14Y-97.35
X118.14Y-98.2
X118.14Y-99.05
X118.14Y-99.9
X118.14Y-100.75
X118.14Y-101.6
X118.14Y-102.45
X118.14Y-103.3
X119.49Y-97.35
X119.49Y-98.2
X119.49Y-99.05
X119.49Y-99.9
X119.49Y-100.75
X119.49Y-101.6
X119.49Y-102.45
X119.49Y-103.3
T4
X96.38Y-113.0
X98.92Y-113.0
X101.46Y-113.0
X102.96Y-91.0
X104.0Y-113.0
X105.5Y-91.0
X108.04Y-91.0
X108.5Y-113.0
X110.58Y-91.0
X111.04Y-113.0
X113.58Y-113.0
X116.12Y-113.0
T3
G00X118.37Y-96.0
M15
G01X119.87Y-96.0
M16
G05
G00X118.37Y-104.65
M15
G01X119.87Y-104.65
M16
G05
G00X122.1Y-96.0
M15
G01X122.9Y-96.0
M16
G05
G00X122.1Y-104.65
M15
G01X122.9Y-104.65
M16
G05
M30
