%TF.GenerationSoftware,KiCad,Pcbnew,9.0.2*%
%TF.CreationDate,2025-05-25T10:52:37+05:30*%
%TF.ProjectId,STM 32,53544d20-3332-42e6-9b69-6361645f7063,rev?*%
%TF.SameCoordinates,Original*%
%TF.FileFunction,Copper,L2,Bot*%
%TF.FilePolarity,Positive*%
%FSLAX46Y46*%
G04 Gerber Fmt 4.6, Leading zero omitted, Abs format (unit mm)*
G04 Created by KiCad (PCBNEW 9.0.2) date 2025-05-25 10:52:37*
%MOMM*%
%LPD*%
G01*
G04 APERTURE LIST*
%TA.AperFunction,ComponentPad*%
%ADD10R,1.700000X1.700000*%
%TD*%
%TA.AperFunction,ComponentPad*%
%ADD11C,1.700000*%
%TD*%
%TA.AperFunction,ComponentPad*%
%ADD12C,0.700000*%
%TD*%
%TA.AperFunction,ComponentPad*%
%ADD13O,0.900000X2.400000*%
%TD*%
%TA.AperFunction,ComponentPad*%
%ADD14O,0.900000X1.700000*%
%TD*%
%TA.AperFunction,ViaPad*%
%ADD15C,0.600000*%
%TD*%
%TA.AperFunction,Conductor*%
%ADD16C,0.200000*%
%TD*%
G04 APERTURE END LIST*
D10*
%TO.P,J3,1,Pin_1*%
%TO.N,/VCC*%
X158442500Y-75225000D03*
D11*
%TO.P,J3,2,Pin_2*%
%TO.N,/UART_TX*%
X158442500Y-77765000D03*
%TO.P,J3,3,Pin_3*%
%TO.N,/UART_RX*%
X158442500Y-80305000D03*
%TO.P,J3,4,Pin_4*%
%TO.N,GND*%
X158442500Y-82845000D03*
%TD*%
D12*
%TO.P,J1,A1,GND*%
%TO.N,GND*%
X168152500Y-74515000D03*
%TO.P,J1,A4,VBUS*%
%TO.N,+5V*%
X169002500Y-74515000D03*
%TO.P,J1,A5,CC1*%
%TO.N,/USB_C_Detection_1*%
X169852500Y-74515000D03*
%TO.P,J1,A6,D+*%
%TO.N,/USB_D+*%
X170702500Y-74515000D03*
%TO.P,J1,A7,D-*%
%TO.N,/USB_D-*%
X171552500Y-74515000D03*
%TO.P,J1,A8*%
%TO.N,N/C*%
X172402500Y-74515000D03*
%TO.P,J1,A9,VBUS*%
%TO.N,+5V*%
X173252500Y-74515000D03*
%TO.P,J1,A12,GND*%
%TO.N,GND*%
X174102500Y-74515000D03*
%TO.P,J1,B1,GND*%
X174102500Y-75865000D03*
%TO.P,J1,B4,VBUS*%
%TO.N,+5V*%
X173252500Y-75865000D03*
%TO.P,J1,B5,CC2*%
%TO.N,/USB_C_Detection_2*%
X172402500Y-75865000D03*
%TO.P,J1,B6,D+*%
%TO.N,unconnected-(J1-D+-PadB6)*%
X171552500Y-75865000D03*
%TO.P,J1,B7,D-*%
%TO.N,unconnected-(J1-D--PadB7)*%
X170702500Y-75865000D03*
%TO.P,J1,B8*%
%TO.N,N/C*%
X169852500Y-75865000D03*
%TO.P,J1,B9,VBUS*%
%TO.N,+5V*%
X169002500Y-75865000D03*
%TO.P,J1,B12,GND*%
%TO.N,GND*%
X168152500Y-75865000D03*
D13*
%TO.P,J1,S1,SHIELD*%
X166802500Y-75495000D03*
D14*
X166802500Y-78875000D03*
D13*
X175452500Y-75495000D03*
D14*
X175452500Y-78875000D03*
%TD*%
D10*
%TO.P,J2,1,Pin_1*%
%TO.N,/VCC*%
X153852500Y-75225000D03*
D11*
%TO.P,J2,2,Pin_2*%
%TO.N,/SWDIO*%
X153852500Y-77765000D03*
%TO.P,J2,3,Pin_3*%
%TO.N,/SWCLK*%
X153852500Y-80305000D03*
%TO.P,J2,4,Pin_4*%
%TO.N,GND*%
X153852500Y-82845000D03*
%TD*%
D10*
%TO.P,J4,1,Pin_1*%
%TO.N,/VCC*%
X163032500Y-75225000D03*
D11*
%TO.P,J4,2,Pin_2*%
%TO.N,/I2C_SDA*%
X163032500Y-77765000D03*
%TO.P,J4,3,Pin_3*%
%TO.N,/I2C_SCL*%
X163032500Y-80305000D03*
%TO.P,J4,4,Pin_4*%
%TO.N,GND*%
X163032500Y-82845000D03*
%TD*%
D15*
%TO.N,GND*%
X154923800Y-88114200D03*
X167751600Y-85248900D03*
%TO.N,/VCAP*%
X162795100Y-91860900D03*
X167696900Y-94299800D03*
%TO.N,/VCC*%
X168797500Y-97204200D03*
X173682100Y-78587800D03*
X175667400Y-96584000D03*
%TO.N,+5V*%
X167345600Y-89700200D03*
X154624000Y-89438300D03*
%TO.N,/USB_D+*%
X166203100Y-85511100D03*
X159835400Y-88448700D03*
%TO.N,/SWCLK*%
X165382500Y-80110500D03*
%TO.N,/SWDIO*%
X165000800Y-78827100D03*
%TO.N,/I2C_SCL*%
X161644400Y-85672200D03*
X156140500Y-99174400D03*
X158483100Y-89315600D03*
%TO.N,/NRST*%
X161606500Y-99118900D03*
X154459100Y-91468500D03*
%TD*%
D16*
%TO.N,GND*%
X174102600Y-75865000D02*
X174102500Y-75865000D01*
X175452500Y-75495000D02*
X175452500Y-76946700D01*
X168093600Y-74456000D02*
X168668400Y-73881200D01*
X167056600Y-74769100D02*
X168152500Y-75865000D01*
X167462100Y-84959400D02*
X165347700Y-84959400D01*
X165347700Y-82845000D02*
X165347700Y-81431500D01*
X165347700Y-81431500D02*
X166802500Y-79976700D01*
X175161800Y-76946700D02*
X174102600Y-75887500D01*
X168093600Y-74456000D02*
X167680800Y-74043300D01*
X153852500Y-82845000D02*
X158442500Y-82845000D01*
X168668400Y-73881200D02*
X173608800Y-73881200D01*
X165347700Y-84959400D02*
X158078600Y-84959400D01*
X175452500Y-76946700D02*
X175161800Y-76946700D01*
X167751600Y-85248900D02*
X167462100Y-84959400D01*
X166802500Y-75495000D02*
X166802500Y-74769100D01*
X158442500Y-82845000D02*
X163032500Y-82845000D01*
X163032500Y-82845000D02*
X165347700Y-82845000D01*
X174102500Y-74374900D02*
X174102500Y-74515000D01*
X158078600Y-84959400D02*
X154923800Y-88114200D01*
X174102600Y-75887500D02*
X174102600Y-75865000D01*
X173608800Y-73881200D02*
X174102500Y-74374900D01*
X168152500Y-74515000D02*
X168093600Y-74456000D01*
X166802500Y-74769100D02*
X167056600Y-74769100D01*
X166802500Y-78875000D02*
X166802500Y-79976700D01*
X166802500Y-74769100D02*
X166802500Y-74043300D01*
X165347700Y-82845000D02*
X165347700Y-84959400D01*
X167680800Y-74043300D02*
X166802500Y-74043300D01*
%TO.N,/VCAP*%
X167696900Y-94299800D02*
X165234000Y-94299800D01*
X165234000Y-94299800D02*
X162795100Y-91860900D01*
%TO.N,/VCC*%
X168132500Y-78587800D02*
X164769700Y-75225000D01*
X153852500Y-75225000D02*
X158442500Y-75225000D01*
X168797500Y-97204200D02*
X169417700Y-96584000D01*
X173682100Y-78587800D02*
X168132500Y-78587800D01*
X164769700Y-75225000D02*
X163032500Y-75225000D01*
X169417700Y-96584000D02*
X175667400Y-96584000D01*
X163032500Y-75225000D02*
X158442500Y-75225000D01*
%TO.N,+5V*%
X173252500Y-75865000D02*
X173252500Y-75790000D01*
X167178500Y-89867300D02*
X167345600Y-89700200D01*
X154624000Y-89438300D02*
X155053000Y-89867300D01*
X173252500Y-75790000D02*
X172714900Y-75252400D01*
X169002500Y-74746100D02*
X169508800Y-75252400D01*
X155053000Y-89867300D02*
X167178500Y-89867300D01*
X172714900Y-75252400D02*
X169508800Y-75252400D01*
X169002500Y-75758700D02*
X169002500Y-75865000D01*
X169002500Y-74515000D02*
X169002500Y-74746100D01*
X169508800Y-75252400D02*
X169002500Y-75758700D01*
%TO.N,/USB_D+*%
X163265500Y-88448700D02*
X159835400Y-88448700D01*
X166203100Y-85511100D02*
X163265500Y-88448700D01*
%TO.N,/SWCLK*%
X164014400Y-81478600D02*
X155026100Y-81478600D01*
X155026100Y-81478600D02*
X153852500Y-80305000D01*
X165382500Y-80110500D02*
X164014400Y-81478600D01*
%TO.N,/SWDIO*%
X164948800Y-78879100D02*
X154966600Y-78879100D01*
X154966600Y-78879100D02*
X153852500Y-77765000D01*
X165000800Y-78827100D02*
X164948800Y-78879100D01*
%TO.N,/I2C_SCL*%
X158483100Y-88833500D02*
X158483100Y-88866100D01*
X158483100Y-88866100D02*
X154340500Y-88866100D01*
X158483100Y-88866100D02*
X158483100Y-89315600D01*
X154340500Y-88866100D02*
X153895800Y-89310800D01*
X153895800Y-89310800D02*
X153895800Y-96929700D01*
X153895800Y-96929700D02*
X156140500Y-99174400D01*
X161644400Y-85672200D02*
X158483100Y-88833500D01*
%TO.N,/NRST*%
X154459100Y-91468500D02*
X154459100Y-91971500D01*
X154459100Y-91971500D02*
X161606500Y-99118900D01*
%TD*%
M02*
