%TF.GenerationSoftware,KiCad,Pcbnew,9.0.2*%
%TF.CreationDate,2025-05-25T10:52:37+05:30*%
%TF.ProjectId,STM 32,53544d20-3332-42e6-9b69-6361645f7063,rev?*%
%TF.SameCoordinates,Original*%
%TF.FileFunction,Copper,L1,Top*%
%TF.FilePolarity,Positive*%
%FSLAX46Y46*%
G04 Gerber Fmt 4.6, Leading zero omitted, Abs format (unit mm)*
G04 Created by KiCad (PCBNEW 9.0.2) date 2025-05-25 10:52:37*
%MOMM*%
%LPD*%
G01*
G04 APERTURE LIST*
G04 Aperture macros list*
%AMRoundRect*
0 Rectangle with rounded corners*
0 $1 Rounding radius*
0 $2 $3 $4 $5 $6 $7 $8 $9 X,Y pos of 4 corners*
0 Add a 4 corners polygon primitive as box body*
4,1,4,$2,$3,$4,$5,$6,$7,$8,$9,$2,$3,0*
0 Add four circle primitives for the rounded corners*
1,1,$1+$1,$2,$3*
1,1,$1+$1,$4,$5*
1,1,$1+$1,$6,$7*
1,1,$1+$1,$8,$9*
0 Add four rect primitives between the rounded corners*
20,1,$1+$1,$2,$3,$4,$5,0*
20,1,$1+$1,$4,$5,$6,$7,0*
20,1,$1+$1,$6,$7,$8,$9,0*
20,1,$1+$1,$8,$9,$2,$3,0*%
G04 Aperture macros list end*
%TA.AperFunction,SMDPad,CuDef*%
%ADD10RoundRect,0.250000X-0.262500X-0.450000X0.262500X-0.450000X0.262500X0.450000X-0.262500X0.450000X0*%
%TD*%
%TA.AperFunction,ComponentPad*%
%ADD11R,1.700000X1.700000*%
%TD*%
%TA.AperFunction,ComponentPad*%
%ADD12C,1.700000*%
%TD*%
%TA.AperFunction,SMDPad,CuDef*%
%ADD13RoundRect,0.250000X-0.250000X-0.475000X0.250000X-0.475000X0.250000X0.475000X-0.250000X0.475000X0*%
%TD*%
%TA.AperFunction,ComponentPad*%
%ADD14C,0.700000*%
%TD*%
%TA.AperFunction,ComponentPad*%
%ADD15O,0.900000X2.400000*%
%TD*%
%TA.AperFunction,ComponentPad*%
%ADD16O,0.900000X1.700000*%
%TD*%
%TA.AperFunction,SMDPad,CuDef*%
%ADD17RoundRect,0.075000X-0.662500X-0.075000X0.662500X-0.075000X0.662500X0.075000X-0.662500X0.075000X0*%
%TD*%
%TA.AperFunction,SMDPad,CuDef*%
%ADD18RoundRect,0.075000X-0.075000X-0.662500X0.075000X-0.662500X0.075000X0.662500X-0.075000X0.662500X0*%
%TD*%
%TA.AperFunction,SMDPad,CuDef*%
%ADD19RoundRect,0.375000X-0.625000X-0.375000X0.625000X-0.375000X0.625000X0.375000X-0.625000X0.375000X0*%
%TD*%
%TA.AperFunction,SMDPad,CuDef*%
%ADD20RoundRect,0.500000X-0.500000X-1.400000X0.500000X-1.400000X0.500000X1.400000X-0.500000X1.400000X0*%
%TD*%
%TA.AperFunction,SMDPad,CuDef*%
%ADD21RoundRect,0.243750X-0.243750X-0.456250X0.243750X-0.456250X0.243750X0.456250X-0.243750X0.456250X0*%
%TD*%
%TA.AperFunction,ViaPad*%
%ADD22C,0.600000*%
%TD*%
%TA.AperFunction,Conductor*%
%ADD23C,0.200000*%
%TD*%
G04 APERTURE END LIST*
D10*
%TO.P,R5,1*%
%TO.N,/VCC*%
X153175000Y-99115000D03*
%TO.P,R5,2*%
%TO.N,/I2C_SCL*%
X155000000Y-99115000D03*
%TD*%
%TO.P,R1,1*%
%TO.N,/USB_C_Detection_1*%
X164675000Y-87315000D03*
%TO.P,R1,2*%
%TO.N,GND*%
X166500000Y-87315000D03*
%TD*%
D11*
%TO.P,J3,1,Pin_1*%
%TO.N,/VCC*%
X158442500Y-75225000D03*
D12*
%TO.P,J3,2,Pin_2*%
%TO.N,/UART_TX*%
X158442500Y-77765000D03*
%TO.P,J3,3,Pin_3*%
%TO.N,/UART_RX*%
X158442500Y-80305000D03*
%TO.P,J3,4,Pin_4*%
%TO.N,GND*%
X158442500Y-82845000D03*
%TD*%
D13*
%TO.P,C4,1*%
%TO.N,/VCC*%
X169100000Y-98495000D03*
%TO.P,C4,2*%
%TO.N,GND*%
X171000000Y-98495000D03*
%TD*%
D14*
%TO.P,J1,A1,GND*%
%TO.N,GND*%
X168152500Y-74515000D03*
%TO.P,J1,A4,VBUS*%
%TO.N,+5V*%
X169002500Y-74515000D03*
%TO.P,J1,A5,CC1*%
%TO.N,/USB_C_Detection_1*%
X169852500Y-74515000D03*
%TO.P,J1,A6,D+*%
%TO.N,/USB_D+*%
X170702500Y-74515000D03*
%TO.P,J1,A7,D-*%
%TO.N,/USB_D-*%
X171552500Y-74515000D03*
%TO.P,J1,A8*%
%TO.N,N/C*%
X172402500Y-74515000D03*
%TO.P,J1,A9,VBUS*%
%TO.N,+5V*%
X173252500Y-74515000D03*
%TO.P,J1,A12,GND*%
%TO.N,GND*%
X174102500Y-74515000D03*
%TO.P,J1,B1,GND*%
X174102500Y-75865000D03*
%TO.P,J1,B4,VBUS*%
%TO.N,+5V*%
X173252500Y-75865000D03*
%TO.P,J1,B5,CC2*%
%TO.N,/USB_C_Detection_2*%
X172402500Y-75865000D03*
%TO.P,J1,B6,D+*%
%TO.N,unconnected-(J1-D+-PadB6)*%
X171552500Y-75865000D03*
%TO.P,J1,B7,D-*%
%TO.N,unconnected-(J1-D--PadB7)*%
X170702500Y-75865000D03*
%TO.P,J1,B8*%
%TO.N,N/C*%
X169852500Y-75865000D03*
%TO.P,J1,B9,VBUS*%
%TO.N,+5V*%
X169002500Y-75865000D03*
%TO.P,J1,B12,GND*%
%TO.N,GND*%
X168152500Y-75865000D03*
D15*
%TO.P,J1,S1,SHIELD*%
X166802500Y-75495000D03*
D16*
X166802500Y-78875000D03*
D15*
X175452500Y-75495000D03*
D16*
X175452500Y-78875000D03*
%TD*%
D13*
%TO.P,C3,1*%
%TO.N,/VCAP*%
X169096300Y-94990000D03*
%TO.P,C3,2*%
%TO.N,GND*%
X170996300Y-94990000D03*
%TD*%
D17*
%TO.P,U1,1,PC13*%
%TO.N,unconnected-(U1-PC13-Pad1)*%
X153070000Y-88065000D03*
%TO.P,U1,2,PC14*%
%TO.N,unconnected-(U1-PC14-Pad2)*%
X153070000Y-88565000D03*
%TO.P,U1,3,PC15*%
%TO.N,unconnected-(U1-PC15-Pad3)*%
X153070000Y-89065000D03*
%TO.P,U1,4,VBAT*%
%TO.N,/VCC*%
X153070000Y-89565000D03*
%TO.P,U1,5,VREF+*%
%TO.N,+5V*%
X153070000Y-90065000D03*
%TO.P,U1,6,VDD*%
%TO.N,/VCC*%
X153070000Y-90565000D03*
%TO.P,U1,7,VSS*%
%TO.N,GND*%
X153070000Y-91065000D03*
%TO.P,U1,8,PF0*%
%TO.N,unconnected-(U1-PF0-Pad8)*%
X153070000Y-91565000D03*
%TO.P,U1,9,PF1*%
%TO.N,unconnected-(U1-PF1-Pad9)*%
X153070000Y-92065000D03*
%TO.P,U1,10,NRST*%
%TO.N,/NRST*%
X153070000Y-92565000D03*
%TO.P,U1,11,PA0*%
%TO.N,unconnected-(U1-PA0-Pad11)*%
X153070000Y-93065000D03*
%TO.P,U1,12,PA1*%
%TO.N,unconnected-(U1-PA1-Pad12)*%
X153070000Y-93565000D03*
D18*
%TO.P,U1,13,PA2*%
%TO.N,/I2C_SDA*%
X154482500Y-94977500D03*
%TO.P,U1,14,PA3*%
%TO.N,/I2C_SCL*%
X154982500Y-94977500D03*
%TO.P,U1,15,PA4*%
%TO.N,unconnected-(U1-PA4-Pad15)*%
X155482500Y-94977500D03*
%TO.P,U1,16,PA5*%
%TO.N,/LED*%
X155982500Y-94977500D03*
%TO.P,U1,17,PA6*%
%TO.N,unconnected-(U1-PA6-Pad17)*%
X156482500Y-94977500D03*
%TO.P,U1,18,PA7*%
%TO.N,unconnected-(U1-PA7-Pad18)*%
X156982500Y-94977500D03*
%TO.P,U1,19,PB0*%
%TO.N,unconnected-(U1-PB0-Pad19)*%
X157482500Y-94977500D03*
%TO.P,U1,20,PB1*%
%TO.N,unconnected-(U1-PB1-Pad20)*%
X157982500Y-94977500D03*
%TO.P,U1,21,PB2*%
%TO.N,unconnected-(U1-PB2-Pad21)*%
X158482500Y-94977500D03*
%TO.P,U1,22,PB10*%
%TO.N,unconnected-(U1-PB10-Pad22)*%
X158982500Y-94977500D03*
%TO.P,U1,23,PB11*%
%TO.N,unconnected-(U1-PB11-Pad23)*%
X159482500Y-94977500D03*
%TO.P,U1,24,PB12*%
%TO.N,unconnected-(U1-PB12-Pad24)*%
X159982500Y-94977500D03*
D17*
%TO.P,U1,25,PB13*%
%TO.N,/SWDIO*%
X161395000Y-93565000D03*
%TO.P,U1,26,PB14*%
%TO.N,/SWCLK*%
X161395000Y-93065000D03*
%TO.P,U1,27,PB15*%
%TO.N,unconnected-(U1-PB15-Pad27)*%
X161395000Y-92565000D03*
%TO.P,U1,28,PA8*%
%TO.N,unconnected-(U1-PA8-Pad28)*%
X161395000Y-92065000D03*
%TO.P,U1,29,NC/PA9*%
%TO.N,unconnected-(U1-NC{slash}PA9-Pad29)*%
X161395000Y-91565000D03*
%TO.P,U1,30,PC6*%
%TO.N,unconnected-(U1-PC6-Pad30)*%
X161395000Y-91065000D03*
%TO.P,U1,31,PC7*%
%TO.N,/VCAP*%
X161395000Y-90565000D03*
%TO.P,U1,32,NC/PA10*%
%TO.N,unconnected-(U1-NC{slash}PA10-Pad32)*%
X161395000Y-90065000D03*
%TO.P,U1,33,PA9/PA11*%
%TO.N,/USB_D-*%
X161395000Y-89565000D03*
%TO.P,U1,34,PA10/PA12*%
%TO.N,/USB_D+*%
X161395000Y-89065000D03*
%TO.P,U1,35,PA13*%
%TO.N,unconnected-(U1-PA13-Pad35)*%
X161395000Y-88565000D03*
%TO.P,U1,36,PA14*%
%TO.N,unconnected-(U1-PA14-Pad36)*%
X161395000Y-88065000D03*
D18*
%TO.P,U1,37,PA15*%
%TO.N,unconnected-(U1-PA15-Pad37)*%
X159982500Y-86652500D03*
%TO.P,U1,38,PD0*%
%TO.N,unconnected-(U1-PD0-Pad38)*%
X159482500Y-86652500D03*
%TO.P,U1,39,PD1*%
%TO.N,unconnected-(U1-PD1-Pad39)*%
X158982500Y-86652500D03*
%TO.P,U1,40,PD2*%
%TO.N,unconnected-(U1-PD2-Pad40)*%
X158482500Y-86652500D03*
%TO.P,U1,41,PD3*%
%TO.N,unconnected-(U1-PD3-Pad41)*%
X157982500Y-86652500D03*
%TO.P,U1,42,PB3*%
%TO.N,unconnected-(U1-PB3-Pad42)*%
X157482500Y-86652500D03*
%TO.P,U1,43,PB4*%
%TO.N,unconnected-(U1-PB4-Pad43)*%
X156982500Y-86652500D03*
%TO.P,U1,44,PB5*%
%TO.N,unconnected-(U1-PB5-Pad44)*%
X156482500Y-86652500D03*
%TO.P,U1,45,PB6*%
%TO.N,/UART_RX*%
X155982500Y-86652500D03*
%TO.P,U1,46,PB7*%
%TO.N,/UART_TX*%
X155482500Y-86652500D03*
%TO.P,U1,47,PB8*%
%TO.N,unconnected-(U1-PB8-Pad47)*%
X154982500Y-86652500D03*
%TO.P,U1,48,PB9*%
%TO.N,unconnected-(U1-PB9-Pad48)*%
X154482500Y-86652500D03*
%TD*%
D11*
%TO.P,J2,1,Pin_1*%
%TO.N,/VCC*%
X153852500Y-75225000D03*
D12*
%TO.P,J2,2,Pin_2*%
%TO.N,/SWDIO*%
X153852500Y-77765000D03*
%TO.P,J2,3,Pin_3*%
%TO.N,/SWCLK*%
X153852500Y-80305000D03*
%TO.P,J2,4,Pin_4*%
%TO.N,GND*%
X153852500Y-82845000D03*
%TD*%
D10*
%TO.P,R2,1*%
%TO.N,/USB_C_Detection_2*%
X164675000Y-91260000D03*
%TO.P,R2,2*%
%TO.N,GND*%
X166500000Y-91260000D03*
%TD*%
D19*
%TO.P,U2,1,GND*%
%TO.N,GND*%
X169092500Y-87040000D03*
%TO.P,U2,2,VO*%
%TO.N,/VCC*%
X169092500Y-89340000D03*
D20*
X175392500Y-89340000D03*
D19*
%TO.P,U2,3,VI*%
%TO.N,+5V*%
X169092500Y-91640000D03*
%TD*%
D10*
%TO.P,R4,1*%
%TO.N,/VCC*%
X164675000Y-99150000D03*
%TO.P,R4,2*%
%TO.N,/I2C_SDA*%
X166500000Y-99150000D03*
%TD*%
D21*
%TO.P,D1,1,K*%
%TO.N,Net-(D1-K)*%
X173625000Y-95000000D03*
%TO.P,D1,2,A*%
%TO.N,GND*%
X175500000Y-95000000D03*
%TD*%
D10*
%TO.P,R6,1*%
%TO.N,/VCC*%
X157675000Y-99000000D03*
%TO.P,R6,2*%
%TO.N,/NRST*%
X159500000Y-99000000D03*
%TD*%
D11*
%TO.P,J4,1,Pin_1*%
%TO.N,/VCC*%
X163032500Y-75225000D03*
D12*
%TO.P,J4,2,Pin_2*%
%TO.N,/I2C_SDA*%
X163032500Y-77765000D03*
%TO.P,J4,3,Pin_3*%
%TO.N,/I2C_SCL*%
X163032500Y-80305000D03*
%TO.P,J4,4,Pin_4*%
%TO.N,GND*%
X163032500Y-82845000D03*
%TD*%
D10*
%TO.P,R3,1*%
%TO.N,Net-(D1-K)*%
X164675000Y-95205000D03*
%TO.P,R3,2*%
%TO.N,/LED*%
X166500000Y-95205000D03*
%TD*%
D22*
%TO.N,GND*%
X154923800Y-88114200D03*
X167751600Y-85248900D03*
%TO.N,/VCAP*%
X162795100Y-91860900D03*
X167696900Y-94299800D03*
%TO.N,/VCC*%
X168797500Y-97204200D03*
X173682100Y-78587800D03*
X175667400Y-96584000D03*
%TO.N,+5V*%
X167345600Y-89700200D03*
X154624000Y-89438300D03*
%TO.N,/USB_D+*%
X166203100Y-85511100D03*
X159835400Y-88448700D03*
%TO.N,/SWCLK*%
X165382500Y-80110500D03*
%TO.N,/SWDIO*%
X165000800Y-78827100D03*
%TO.N,/I2C_SCL*%
X161644400Y-85672200D03*
X156140500Y-99174400D03*
X158483100Y-89315600D03*
%TO.N,/NRST*%
X161606500Y-99118900D03*
X154459100Y-91468500D03*
%TD*%
D23*
%TO.N,GND*%
X175500000Y-95000000D02*
X174547400Y-95952600D01*
X154472500Y-90916700D02*
X155527400Y-89861800D01*
X166500000Y-87315000D02*
X166500000Y-91260000D01*
X174102500Y-74515000D02*
X174102500Y-75865000D01*
X171000000Y-98495000D02*
X171958900Y-97536100D01*
X167751600Y-85248900D02*
X167751600Y-87040000D01*
X174547400Y-95952600D02*
X171958900Y-95952600D01*
X153826900Y-91065000D02*
X153975200Y-90916700D01*
X167751600Y-87040000D02*
X166775000Y-87040000D01*
X166775000Y-87040000D02*
X166500000Y-87315000D01*
X175452500Y-78875000D02*
X175452500Y-75495000D01*
X169092500Y-87040000D02*
X167751600Y-87040000D01*
X155527400Y-89861800D02*
X155527400Y-88717800D01*
X174048600Y-93548600D02*
X175500000Y-95000000D01*
X153070000Y-91065000D02*
X153826900Y-91065000D01*
X171958900Y-97536100D02*
X171958900Y-95952600D01*
X168788600Y-93548600D02*
X174048600Y-93548600D01*
X166500000Y-91260000D02*
X168788600Y-93548600D01*
X166802500Y-78875000D02*
X166802500Y-75495000D01*
X153975200Y-90916700D02*
X154472500Y-90916700D01*
X155527400Y-88717800D02*
X154923800Y-88114200D01*
X171958900Y-95952600D02*
X170996300Y-94990000D01*
%TO.N,/VCAP*%
X162113800Y-90565000D02*
X162795100Y-91246300D01*
X169096300Y-94990000D02*
X168406100Y-94299800D01*
X168406100Y-94299800D02*
X167696900Y-94299800D01*
X161395000Y-90565000D02*
X162113800Y-90565000D01*
X162795100Y-91246300D02*
X162795100Y-91860900D01*
%TO.N,/VCC*%
X175667400Y-96584000D02*
X176240100Y-96011300D01*
X153792700Y-89565000D02*
X153070000Y-89565000D01*
X154064100Y-88832100D02*
X154810200Y-88832100D01*
X154064100Y-89293600D02*
X153792700Y-89565000D01*
X154064100Y-87646500D02*
X154064100Y-88832100D01*
X155175700Y-89716200D02*
X154326900Y-90565000D01*
X163547900Y-98022900D02*
X158652100Y-98022900D01*
X176240100Y-90187600D02*
X175392500Y-89340000D01*
X168797500Y-98192500D02*
X168797500Y-97204200D01*
X153714800Y-76326700D02*
X152707200Y-77334300D01*
X175392500Y-89340000D02*
X173682100Y-89340000D01*
X155175700Y-89197600D02*
X155175700Y-89716200D01*
X154156100Y-98133900D02*
X156808900Y-98133900D01*
X153852500Y-76326700D02*
X153714800Y-76326700D01*
X168797500Y-98192500D02*
X169100000Y-98495000D01*
X154064100Y-88832100D02*
X154064100Y-89293600D01*
X176240100Y-96011300D02*
X176240100Y-90187600D01*
X154326900Y-90565000D02*
X153070000Y-90565000D01*
X173682100Y-89340000D02*
X169092500Y-89340000D01*
X153175000Y-99115000D02*
X154156100Y-98133900D01*
X164675000Y-99150000D02*
X165632500Y-98192500D01*
X156808900Y-98133900D02*
X157675000Y-99000000D01*
X158652100Y-98022900D02*
X157675000Y-99000000D01*
X173682100Y-89340000D02*
X173682100Y-78587800D01*
X164675000Y-99150000D02*
X163547900Y-98022900D01*
X152707200Y-86289600D02*
X154064100Y-87646500D01*
X153852500Y-75225000D02*
X153852500Y-76326700D01*
X152707200Y-77334300D02*
X152707200Y-86289600D01*
X165632500Y-98192500D02*
X168797500Y-98192500D01*
X154810200Y-88832100D02*
X155175700Y-89197600D01*
%TO.N,Net-(D1-K)*%
X173625000Y-95000000D02*
X172573100Y-93948100D01*
X168125400Y-93948100D02*
X167925400Y-93748100D01*
X166131900Y-93748100D02*
X164675000Y-95205000D01*
X167925400Y-93748100D02*
X166131900Y-93748100D01*
X172573100Y-93948100D02*
X168125400Y-93948100D01*
%TO.N,+5V*%
X168151700Y-88313000D02*
X167794100Y-88670600D01*
X167345600Y-89700200D02*
X167794100Y-89700200D01*
X167794100Y-90341600D02*
X169092500Y-91640000D01*
X170687000Y-88313000D02*
X168151700Y-88313000D01*
X167794100Y-88670600D02*
X167794100Y-89700200D01*
X167794100Y-89700200D02*
X167794100Y-90341600D01*
X153070000Y-90065000D02*
X153997300Y-90065000D01*
X173252500Y-74515000D02*
X173252500Y-75865000D01*
X173130400Y-85869600D02*
X170687000Y-88313000D01*
X173252500Y-75865000D02*
X173130400Y-75987100D01*
X153997300Y-90065000D02*
X154624000Y-89438300D01*
X173130400Y-75987100D02*
X173130400Y-85869600D01*
%TO.N,/USB_C_Detection_2*%
X165440200Y-90494800D02*
X165440200Y-86917200D01*
X166754800Y-85739600D02*
X166754800Y-85465600D01*
X165440200Y-86917200D02*
X166294600Y-86062800D01*
X166294600Y-86062800D02*
X166431600Y-86062800D01*
X166754800Y-85465600D02*
X172402500Y-79817900D01*
X166431600Y-86062800D02*
X166754800Y-85739600D01*
X172402500Y-79817900D02*
X172402500Y-75865000D01*
X164675000Y-91260000D02*
X165440200Y-90494800D01*
%TO.N,/USB_D+*%
X168046100Y-75116700D02*
X167527500Y-75635300D01*
X167527500Y-75635300D02*
X167527500Y-84186700D01*
X170702500Y-74515000D02*
X170702500Y-74590000D01*
X170702500Y-74590000D02*
X170175800Y-75116700D01*
X159835400Y-88448700D02*
X160451700Y-89065000D01*
X167527500Y-84186700D02*
X166203100Y-85511100D01*
X170175800Y-75116700D02*
X168046100Y-75116700D01*
X160451700Y-89065000D02*
X161395000Y-89065000D01*
%TO.N,/USB_D-*%
X166511300Y-73533300D02*
X164227300Y-75817300D01*
X170710900Y-73533300D02*
X166511300Y-73533300D01*
X164227300Y-75817300D02*
X164227300Y-83945200D01*
X171552500Y-74374900D02*
X170710900Y-73533300D01*
X162524700Y-89186100D02*
X162145800Y-89565000D01*
X171552500Y-74515000D02*
X171552500Y-74374900D01*
X164227300Y-83945200D02*
X162524700Y-85647800D01*
X162524700Y-85647800D02*
X162524700Y-89186100D01*
X162145800Y-89565000D02*
X161395000Y-89565000D01*
%TO.N,/USB_C_Detection_1*%
X166078600Y-84638000D02*
X164675000Y-86041600D01*
X169346800Y-73885000D02*
X166656900Y-73885000D01*
X166656900Y-73885000D02*
X166078600Y-74463300D01*
X164675000Y-86041600D02*
X164675000Y-87315000D01*
X169852500Y-74515000D02*
X169852500Y-74390700D01*
X169852500Y-74390700D02*
X169346800Y-73885000D01*
X166078600Y-74463300D02*
X166078600Y-84638000D01*
%TO.N,/SWCLK*%
X160686300Y-93065000D02*
X160351000Y-93400300D01*
X162288200Y-93988100D02*
X163873600Y-92402700D01*
X160351000Y-93400300D02*
X160351000Y-93732300D01*
X163873600Y-92402700D02*
X163873600Y-85552600D01*
X161395000Y-93065000D02*
X160686300Y-93065000D01*
X160606800Y-93988100D02*
X162288200Y-93988100D01*
X163873600Y-85552600D02*
X165382500Y-84043700D01*
X160351000Y-93732300D02*
X160606800Y-93988100D01*
X165382500Y-84043700D02*
X165382500Y-80110500D01*
%TO.N,/SWDIO*%
X162189400Y-93565000D02*
X161395000Y-93565000D01*
X164649100Y-79178800D02*
X164649100Y-84279800D01*
X164649100Y-84279800D02*
X163346900Y-85582000D01*
X165000800Y-78827100D02*
X164649100Y-79178800D01*
X163346900Y-92407500D02*
X162189400Y-93565000D01*
X163346900Y-85582000D02*
X163346900Y-92407500D01*
%TO.N,/UART_RX*%
X155982500Y-82765000D02*
X158442500Y-80305000D01*
X155982500Y-86652500D02*
X155982500Y-82765000D01*
%TO.N,/UART_TX*%
X158442500Y-77765000D02*
X155482500Y-80725000D01*
X155482500Y-80725000D02*
X155482500Y-86652500D01*
%TO.N,/I2C_SCL*%
X158483100Y-89315600D02*
X154982500Y-92816200D01*
X155059400Y-99174400D02*
X155000000Y-99115000D01*
X154982500Y-92816200D02*
X154982500Y-94977500D01*
X161644400Y-81693100D02*
X163032500Y-80305000D01*
X161644400Y-85672200D02*
X161644400Y-81693100D01*
X156140500Y-99174400D02*
X155059400Y-99174400D01*
%TO.N,/I2C_SDA*%
X166500000Y-99150000D02*
X166822700Y-99472700D01*
X169073400Y-96605100D02*
X155410200Y-96605100D01*
X154482500Y-95677400D02*
X154482500Y-94977500D01*
X169924600Y-97456300D02*
X169073400Y-96605100D01*
X160764000Y-80033500D02*
X160764000Y-87117000D01*
X159121600Y-87897000D02*
X154482500Y-92536100D01*
X166822700Y-99472700D02*
X169596400Y-99472700D01*
X154482500Y-92536100D02*
X154482500Y-94977500D01*
X163032500Y-77765000D02*
X160764000Y-80033500D01*
X169596400Y-99472700D02*
X169924600Y-99144500D01*
X160764000Y-87117000D02*
X159984000Y-87897000D01*
X159984000Y-87897000D02*
X159121600Y-87897000D01*
X155410200Y-96605100D02*
X154482500Y-95677400D01*
X169924600Y-99144500D02*
X169924600Y-97456300D01*
%TO.N,/LED*%
X155982500Y-94977500D02*
X155982500Y-95703800D01*
X155982500Y-95703800D02*
X156474300Y-96195600D01*
X156474300Y-96195600D02*
X165509400Y-96195600D01*
X165509400Y-96195600D02*
X166500000Y-95205000D01*
%TO.N,/NRST*%
X161606500Y-99118900D02*
X159618900Y-99118900D01*
X154459100Y-91971500D02*
X154459100Y-91468500D01*
X153865600Y-92565000D02*
X154459100Y-91971500D01*
X159618900Y-99118900D02*
X159500000Y-99000000D01*
X153070000Y-92565000D02*
X153865600Y-92565000D01*
%TD*%
M02*
