M48
; DRILL file {KiCad 9.0.2} date 2025-05-25T10:52:55+0530
; FORMAT={-:-/ absolute / metric / decimal}
; #@! TF.CreationDate,2025-05-25T10:52:55+05:30
; #@! TF.GenerationSoftware,Kicad,Pcbnew,9.0.2
; #@! TF.FileFunction,Plated,1,2,PTH
FMAT,2
METRIC
; #@! TA.AperFunction,Plated,PTH,ViaDrill
T1C0.300
; #@! TA.AperFunction,Plated,PTH,ComponentDrill
T2C0.400
; #@! TA.AperFunction,Plated,PTH,ComponentDrill
T3C0.600
; #@! TA.AperFunction,Plated,PTH,ComponentDrill
T4C1.000
%
G90
G05
T1
X154.459Y-91.468
X154.624Y-89.438
X154.924Y-88.114
X156.141Y-99.174
X158.483Y-89.316
X159.835Y-88.449
X161.606Y-99.119
X161.644Y-85.672
X162.795Y-91.861
X165.001Y-78.827
X165.382Y-80.111
X166.203Y-85.511
X167.346Y-89.7
X167.697Y-94.3
X167.752Y-85.249
X168.797Y-97.204
X173.682Y-78.588
X175.667Y-96.584
T2
X168.153Y-74.515
X168.153Y-75.865
X169.002Y-74.515
X169.002Y-75.865
X169.852Y-74.515
X169.852Y-75.865
X170.702Y-74.515
X170.702Y-75.865
X171.552Y-74.515
X171.552Y-75.865
X172.403Y-74.515
X172.403Y-75.865
X173.252Y-74.515
X173.252Y-75.865
X174.102Y-74.515
X174.102Y-75.865
T4
X153.852Y-75.225
X153.852Y-77.765
X153.852Y-80.305
X153.852Y-82.845
X158.442Y-75.225
X158.442Y-77.765
X158.442Y-80.305
X158.442Y-82.845
X163.032Y-75.225
X163.032Y-77.765
X163.032Y-80.305
X163.032Y-82.845
T3
G00X166.802Y-74.745
M15
G01X166.802Y-76.245
M16
G05
G00X166.802Y-78.475
M15
G01X166.802Y-79.275
M16
G05
G00X175.452Y-74.745
M15
G01X175.452Y-76.245
M16
G05
G00X175.452Y-78.475
M15
G01X175.452Y-79.275
M16
G05
M30
