%TF.GenerationSoftware,KiCad,Pcbnew,9.0.2*%
%TF.CreationDate,2025-05-25T10:52:37+05:30*%
%TF.ProjectId,STM 32,53544d20-3332-42e6-9b69-6361645f7063,rev?*%
%TF.SameCoordinates,Original*%
%TF.FileFunction,Legend,Top*%
%TF.FilePolarity,Positive*%
%FSLAX46Y46*%
G04 Gerber Fmt 4.6, Leading zero omitted, Abs format (unit mm)*
G04 Created by KiCad (PCBNEW 9.0.2) date 2025-05-25 10:52:37*
%MOMM*%
%LPD*%
G01*
G04 APERTURE LIST*
%ADD10C,0.150000*%
%ADD11C,0.120000*%
G04 APERTURE END LIST*
D10*
X153920833Y-97919819D02*
X153587500Y-97443628D01*
X153349405Y-97919819D02*
X153349405Y-96919819D01*
X153349405Y-96919819D02*
X153730357Y-96919819D01*
X153730357Y-96919819D02*
X153825595Y-96967438D01*
X153825595Y-96967438D02*
X153873214Y-97015057D01*
X153873214Y-97015057D02*
X153920833Y-97110295D01*
X153920833Y-97110295D02*
X153920833Y-97253152D01*
X153920833Y-97253152D02*
X153873214Y-97348390D01*
X153873214Y-97348390D02*
X153825595Y-97396009D01*
X153825595Y-97396009D02*
X153730357Y-97443628D01*
X153730357Y-97443628D02*
X153349405Y-97443628D01*
X154825595Y-96919819D02*
X154349405Y-96919819D01*
X154349405Y-96919819D02*
X154301786Y-97396009D01*
X154301786Y-97396009D02*
X154349405Y-97348390D01*
X154349405Y-97348390D02*
X154444643Y-97300771D01*
X154444643Y-97300771D02*
X154682738Y-97300771D01*
X154682738Y-97300771D02*
X154777976Y-97348390D01*
X154777976Y-97348390D02*
X154825595Y-97396009D01*
X154825595Y-97396009D02*
X154873214Y-97491247D01*
X154873214Y-97491247D02*
X154873214Y-97729342D01*
X154873214Y-97729342D02*
X154825595Y-97824580D01*
X154825595Y-97824580D02*
X154777976Y-97872200D01*
X154777976Y-97872200D02*
X154682738Y-97919819D01*
X154682738Y-97919819D02*
X154444643Y-97919819D01*
X154444643Y-97919819D02*
X154349405Y-97872200D01*
X154349405Y-97872200D02*
X154301786Y-97824580D01*
X165420833Y-86119819D02*
X165087500Y-85643628D01*
X164849405Y-86119819D02*
X164849405Y-85119819D01*
X164849405Y-85119819D02*
X165230357Y-85119819D01*
X165230357Y-85119819D02*
X165325595Y-85167438D01*
X165325595Y-85167438D02*
X165373214Y-85215057D01*
X165373214Y-85215057D02*
X165420833Y-85310295D01*
X165420833Y-85310295D02*
X165420833Y-85453152D01*
X165420833Y-85453152D02*
X165373214Y-85548390D01*
X165373214Y-85548390D02*
X165325595Y-85596009D01*
X165325595Y-85596009D02*
X165230357Y-85643628D01*
X165230357Y-85643628D02*
X164849405Y-85643628D01*
X166373214Y-86119819D02*
X165801786Y-86119819D01*
X166087500Y-86119819D02*
X166087500Y-85119819D01*
X166087500Y-85119819D02*
X165992262Y-85262676D01*
X165992262Y-85262676D02*
X165897024Y-85357914D01*
X165897024Y-85357914D02*
X165801786Y-85405533D01*
X158109166Y-72299819D02*
X158109166Y-73014104D01*
X158109166Y-73014104D02*
X158061547Y-73156961D01*
X158061547Y-73156961D02*
X157966309Y-73252200D01*
X157966309Y-73252200D02*
X157823452Y-73299819D01*
X157823452Y-73299819D02*
X157728214Y-73299819D01*
X158490119Y-72299819D02*
X159109166Y-72299819D01*
X159109166Y-72299819D02*
X158775833Y-72680771D01*
X158775833Y-72680771D02*
X158918690Y-72680771D01*
X158918690Y-72680771D02*
X159013928Y-72728390D01*
X159013928Y-72728390D02*
X159061547Y-72776009D01*
X159061547Y-72776009D02*
X159109166Y-72871247D01*
X159109166Y-72871247D02*
X159109166Y-73109342D01*
X159109166Y-73109342D02*
X159061547Y-73204580D01*
X159061547Y-73204580D02*
X159013928Y-73252200D01*
X159013928Y-73252200D02*
X158918690Y-73299819D01*
X158918690Y-73299819D02*
X158632976Y-73299819D01*
X158632976Y-73299819D02*
X158537738Y-73252200D01*
X158537738Y-73252200D02*
X158490119Y-73204580D01*
X169883333Y-97174580D02*
X169835714Y-97222200D01*
X169835714Y-97222200D02*
X169692857Y-97269819D01*
X169692857Y-97269819D02*
X169597619Y-97269819D01*
X169597619Y-97269819D02*
X169454762Y-97222200D01*
X169454762Y-97222200D02*
X169359524Y-97126961D01*
X169359524Y-97126961D02*
X169311905Y-97031723D01*
X169311905Y-97031723D02*
X169264286Y-96841247D01*
X169264286Y-96841247D02*
X169264286Y-96698390D01*
X169264286Y-96698390D02*
X169311905Y-96507914D01*
X169311905Y-96507914D02*
X169359524Y-96412676D01*
X169359524Y-96412676D02*
X169454762Y-96317438D01*
X169454762Y-96317438D02*
X169597619Y-96269819D01*
X169597619Y-96269819D02*
X169692857Y-96269819D01*
X169692857Y-96269819D02*
X169835714Y-96317438D01*
X169835714Y-96317438D02*
X169883333Y-96365057D01*
X170740476Y-96603152D02*
X170740476Y-97269819D01*
X170502381Y-96222200D02*
X170264286Y-96936485D01*
X170264286Y-96936485D02*
X170883333Y-96936485D01*
X170794166Y-72169819D02*
X170794166Y-72884104D01*
X170794166Y-72884104D02*
X170746547Y-73026961D01*
X170746547Y-73026961D02*
X170651309Y-73122200D01*
X170651309Y-73122200D02*
X170508452Y-73169819D01*
X170508452Y-73169819D02*
X170413214Y-73169819D01*
X171794166Y-73169819D02*
X171222738Y-73169819D01*
X171508452Y-73169819D02*
X171508452Y-72169819D01*
X171508452Y-72169819D02*
X171413214Y-72312676D01*
X171413214Y-72312676D02*
X171317976Y-72407914D01*
X171317976Y-72407914D02*
X171222738Y-72455533D01*
X168833333Y-93669580D02*
X168785714Y-93717200D01*
X168785714Y-93717200D02*
X168642857Y-93764819D01*
X168642857Y-93764819D02*
X168547619Y-93764819D01*
X168547619Y-93764819D02*
X168404762Y-93717200D01*
X168404762Y-93717200D02*
X168309524Y-93621961D01*
X168309524Y-93621961D02*
X168261905Y-93526723D01*
X168261905Y-93526723D02*
X168214286Y-93336247D01*
X168214286Y-93336247D02*
X168214286Y-93193390D01*
X168214286Y-93193390D02*
X168261905Y-93002914D01*
X168261905Y-93002914D02*
X168309524Y-92907676D01*
X168309524Y-92907676D02*
X168404762Y-92812438D01*
X168404762Y-92812438D02*
X168547619Y-92764819D01*
X168547619Y-92764819D02*
X168642857Y-92764819D01*
X168642857Y-92764819D02*
X168785714Y-92812438D01*
X168785714Y-92812438D02*
X168833333Y-92860057D01*
X169166667Y-92764819D02*
X169785714Y-92764819D01*
X169785714Y-92764819D02*
X169452381Y-93145771D01*
X169452381Y-93145771D02*
X169595238Y-93145771D01*
X169595238Y-93145771D02*
X169690476Y-93193390D01*
X169690476Y-93193390D02*
X169738095Y-93241009D01*
X169738095Y-93241009D02*
X169785714Y-93336247D01*
X169785714Y-93336247D02*
X169785714Y-93574342D01*
X169785714Y-93574342D02*
X169738095Y-93669580D01*
X169738095Y-93669580D02*
X169690476Y-93717200D01*
X169690476Y-93717200D02*
X169595238Y-93764819D01*
X169595238Y-93764819D02*
X169309524Y-93764819D01*
X169309524Y-93764819D02*
X169214286Y-93717200D01*
X169214286Y-93717200D02*
X169166667Y-93669580D01*
X156470595Y-84419819D02*
X156470595Y-85229342D01*
X156470595Y-85229342D02*
X156518214Y-85324580D01*
X156518214Y-85324580D02*
X156565833Y-85372200D01*
X156565833Y-85372200D02*
X156661071Y-85419819D01*
X156661071Y-85419819D02*
X156851547Y-85419819D01*
X156851547Y-85419819D02*
X156946785Y-85372200D01*
X156946785Y-85372200D02*
X156994404Y-85324580D01*
X156994404Y-85324580D02*
X157042023Y-85229342D01*
X157042023Y-85229342D02*
X157042023Y-84419819D01*
X158042023Y-85419819D02*
X157470595Y-85419819D01*
X157756309Y-85419819D02*
X157756309Y-84419819D01*
X157756309Y-84419819D02*
X157661071Y-84562676D01*
X157661071Y-84562676D02*
X157565833Y-84657914D01*
X157565833Y-84657914D02*
X157470595Y-84705533D01*
X153519166Y-72299819D02*
X153519166Y-73014104D01*
X153519166Y-73014104D02*
X153471547Y-73156961D01*
X153471547Y-73156961D02*
X153376309Y-73252200D01*
X153376309Y-73252200D02*
X153233452Y-73299819D01*
X153233452Y-73299819D02*
X153138214Y-73299819D01*
X153947738Y-72395057D02*
X153995357Y-72347438D01*
X153995357Y-72347438D02*
X154090595Y-72299819D01*
X154090595Y-72299819D02*
X154328690Y-72299819D01*
X154328690Y-72299819D02*
X154423928Y-72347438D01*
X154423928Y-72347438D02*
X154471547Y-72395057D01*
X154471547Y-72395057D02*
X154519166Y-72490295D01*
X154519166Y-72490295D02*
X154519166Y-72585533D01*
X154519166Y-72585533D02*
X154471547Y-72728390D01*
X154471547Y-72728390D02*
X153900119Y-73299819D01*
X153900119Y-73299819D02*
X154519166Y-73299819D01*
X165420833Y-90064819D02*
X165087500Y-89588628D01*
X164849405Y-90064819D02*
X164849405Y-89064819D01*
X164849405Y-89064819D02*
X165230357Y-89064819D01*
X165230357Y-89064819D02*
X165325595Y-89112438D01*
X165325595Y-89112438D02*
X165373214Y-89160057D01*
X165373214Y-89160057D02*
X165420833Y-89255295D01*
X165420833Y-89255295D02*
X165420833Y-89398152D01*
X165420833Y-89398152D02*
X165373214Y-89493390D01*
X165373214Y-89493390D02*
X165325595Y-89541009D01*
X165325595Y-89541009D02*
X165230357Y-89588628D01*
X165230357Y-89588628D02*
X164849405Y-89588628D01*
X165801786Y-89160057D02*
X165849405Y-89112438D01*
X165849405Y-89112438D02*
X165944643Y-89064819D01*
X165944643Y-89064819D02*
X166182738Y-89064819D01*
X166182738Y-89064819D02*
X166277976Y-89112438D01*
X166277976Y-89112438D02*
X166325595Y-89160057D01*
X166325595Y-89160057D02*
X166373214Y-89255295D01*
X166373214Y-89255295D02*
X166373214Y-89350533D01*
X166373214Y-89350533D02*
X166325595Y-89493390D01*
X166325595Y-89493390D02*
X165754167Y-90064819D01*
X165754167Y-90064819D02*
X166373214Y-90064819D01*
X171480595Y-84294819D02*
X171480595Y-85104342D01*
X171480595Y-85104342D02*
X171528214Y-85199580D01*
X171528214Y-85199580D02*
X171575833Y-85247200D01*
X171575833Y-85247200D02*
X171671071Y-85294819D01*
X171671071Y-85294819D02*
X171861547Y-85294819D01*
X171861547Y-85294819D02*
X171956785Y-85247200D01*
X171956785Y-85247200D02*
X172004404Y-85199580D01*
X172004404Y-85199580D02*
X172052023Y-85104342D01*
X172052023Y-85104342D02*
X172052023Y-84294819D01*
X172480595Y-84390057D02*
X172528214Y-84342438D01*
X172528214Y-84342438D02*
X172623452Y-84294819D01*
X172623452Y-84294819D02*
X172861547Y-84294819D01*
X172861547Y-84294819D02*
X172956785Y-84342438D01*
X172956785Y-84342438D02*
X173004404Y-84390057D01*
X173004404Y-84390057D02*
X173052023Y-84485295D01*
X173052023Y-84485295D02*
X173052023Y-84580533D01*
X173052023Y-84580533D02*
X173004404Y-84723390D01*
X173004404Y-84723390D02*
X172432976Y-85294819D01*
X172432976Y-85294819D02*
X173052023Y-85294819D01*
X165420833Y-97954819D02*
X165087500Y-97478628D01*
X164849405Y-97954819D02*
X164849405Y-96954819D01*
X164849405Y-96954819D02*
X165230357Y-96954819D01*
X165230357Y-96954819D02*
X165325595Y-97002438D01*
X165325595Y-97002438D02*
X165373214Y-97050057D01*
X165373214Y-97050057D02*
X165420833Y-97145295D01*
X165420833Y-97145295D02*
X165420833Y-97288152D01*
X165420833Y-97288152D02*
X165373214Y-97383390D01*
X165373214Y-97383390D02*
X165325595Y-97431009D01*
X165325595Y-97431009D02*
X165230357Y-97478628D01*
X165230357Y-97478628D02*
X164849405Y-97478628D01*
X166277976Y-97288152D02*
X166277976Y-97954819D01*
X166039881Y-96907200D02*
X165801786Y-97621485D01*
X165801786Y-97621485D02*
X166420833Y-97621485D01*
X174761905Y-93804819D02*
X174761905Y-92804819D01*
X174761905Y-92804819D02*
X175000000Y-92804819D01*
X175000000Y-92804819D02*
X175142857Y-92852438D01*
X175142857Y-92852438D02*
X175238095Y-92947676D01*
X175238095Y-92947676D02*
X175285714Y-93042914D01*
X175285714Y-93042914D02*
X175333333Y-93233390D01*
X175333333Y-93233390D02*
X175333333Y-93376247D01*
X175333333Y-93376247D02*
X175285714Y-93566723D01*
X175285714Y-93566723D02*
X175238095Y-93661961D01*
X175238095Y-93661961D02*
X175142857Y-93757200D01*
X175142857Y-93757200D02*
X175000000Y-93804819D01*
X175000000Y-93804819D02*
X174761905Y-93804819D01*
X176285714Y-93804819D02*
X175714286Y-93804819D01*
X176000000Y-93804819D02*
X176000000Y-92804819D01*
X176000000Y-92804819D02*
X175904762Y-92947676D01*
X175904762Y-92947676D02*
X175809524Y-93042914D01*
X175809524Y-93042914D02*
X175714286Y-93090533D01*
X158420833Y-97804819D02*
X158087500Y-97328628D01*
X157849405Y-97804819D02*
X157849405Y-96804819D01*
X157849405Y-96804819D02*
X158230357Y-96804819D01*
X158230357Y-96804819D02*
X158325595Y-96852438D01*
X158325595Y-96852438D02*
X158373214Y-96900057D01*
X158373214Y-96900057D02*
X158420833Y-96995295D01*
X158420833Y-96995295D02*
X158420833Y-97138152D01*
X158420833Y-97138152D02*
X158373214Y-97233390D01*
X158373214Y-97233390D02*
X158325595Y-97281009D01*
X158325595Y-97281009D02*
X158230357Y-97328628D01*
X158230357Y-97328628D02*
X157849405Y-97328628D01*
X159277976Y-96804819D02*
X159087500Y-96804819D01*
X159087500Y-96804819D02*
X158992262Y-96852438D01*
X158992262Y-96852438D02*
X158944643Y-96900057D01*
X158944643Y-96900057D02*
X158849405Y-97042914D01*
X158849405Y-97042914D02*
X158801786Y-97233390D01*
X158801786Y-97233390D02*
X158801786Y-97614342D01*
X158801786Y-97614342D02*
X158849405Y-97709580D01*
X158849405Y-97709580D02*
X158897024Y-97757200D01*
X158897024Y-97757200D02*
X158992262Y-97804819D01*
X158992262Y-97804819D02*
X159182738Y-97804819D01*
X159182738Y-97804819D02*
X159277976Y-97757200D01*
X159277976Y-97757200D02*
X159325595Y-97709580D01*
X159325595Y-97709580D02*
X159373214Y-97614342D01*
X159373214Y-97614342D02*
X159373214Y-97376247D01*
X159373214Y-97376247D02*
X159325595Y-97281009D01*
X159325595Y-97281009D02*
X159277976Y-97233390D01*
X159277976Y-97233390D02*
X159182738Y-97185771D01*
X159182738Y-97185771D02*
X158992262Y-97185771D01*
X158992262Y-97185771D02*
X158897024Y-97233390D01*
X158897024Y-97233390D02*
X158849405Y-97281009D01*
X158849405Y-97281009D02*
X158801786Y-97376247D01*
X162699166Y-72299819D02*
X162699166Y-73014104D01*
X162699166Y-73014104D02*
X162651547Y-73156961D01*
X162651547Y-73156961D02*
X162556309Y-73252200D01*
X162556309Y-73252200D02*
X162413452Y-73299819D01*
X162413452Y-73299819D02*
X162318214Y-73299819D01*
X163603928Y-72633152D02*
X163603928Y-73299819D01*
X163365833Y-72252200D02*
X163127738Y-72966485D01*
X163127738Y-72966485D02*
X163746785Y-72966485D01*
X165420833Y-94009819D02*
X165087500Y-93533628D01*
X164849405Y-94009819D02*
X164849405Y-93009819D01*
X164849405Y-93009819D02*
X165230357Y-93009819D01*
X165230357Y-93009819D02*
X165325595Y-93057438D01*
X165325595Y-93057438D02*
X165373214Y-93105057D01*
X165373214Y-93105057D02*
X165420833Y-93200295D01*
X165420833Y-93200295D02*
X165420833Y-93343152D01*
X165420833Y-93343152D02*
X165373214Y-93438390D01*
X165373214Y-93438390D02*
X165325595Y-93486009D01*
X165325595Y-93486009D02*
X165230357Y-93533628D01*
X165230357Y-93533628D02*
X164849405Y-93533628D01*
X165754167Y-93009819D02*
X166373214Y-93009819D01*
X166373214Y-93009819D02*
X166039881Y-93390771D01*
X166039881Y-93390771D02*
X166182738Y-93390771D01*
X166182738Y-93390771D02*
X166277976Y-93438390D01*
X166277976Y-93438390D02*
X166325595Y-93486009D01*
X166325595Y-93486009D02*
X166373214Y-93581247D01*
X166373214Y-93581247D02*
X166373214Y-93819342D01*
X166373214Y-93819342D02*
X166325595Y-93914580D01*
X166325595Y-93914580D02*
X166277976Y-93962200D01*
X166277976Y-93962200D02*
X166182738Y-94009819D01*
X166182738Y-94009819D02*
X165897024Y-94009819D01*
X165897024Y-94009819D02*
X165801786Y-93962200D01*
X165801786Y-93962200D02*
X165754167Y-93914580D01*
D11*
%TO.C,R5*%
X153860436Y-98380000D02*
X154314564Y-98380000D01*
X153860436Y-99850000D02*
X154314564Y-99850000D01*
%TO.C,R1*%
X165360436Y-86580000D02*
X165814564Y-86580000D01*
X165360436Y-88050000D02*
X165814564Y-88050000D01*
%TO.C,J3*%
X157062500Y-73845000D02*
X158442500Y-73845000D01*
X157062500Y-75225000D02*
X157062500Y-73845000D01*
X157062500Y-76495000D02*
X157062500Y-84225000D01*
X157062500Y-76495000D02*
X159822500Y-76495000D01*
X157062500Y-84225000D02*
X159822500Y-84225000D01*
X159822500Y-76495000D02*
X159822500Y-84225000D01*
%TO.C,C4*%
X169788748Y-97760000D02*
X170311252Y-97760000D01*
X169788748Y-99230000D02*
X170311252Y-99230000D01*
%TO.C,J1*%
X166532500Y-76915000D02*
X166532500Y-77815000D01*
X166532500Y-80515000D02*
X166532500Y-83245000D01*
X166532500Y-83245000D02*
X175722500Y-83245000D01*
X166652500Y-73835000D02*
X175602500Y-73835000D01*
X175722500Y-76915000D02*
X175722500Y-77815000D01*
X175722500Y-80515000D02*
X175722500Y-83245000D01*
%TO.C,C3*%
X169785048Y-94255000D02*
X170307552Y-94255000D01*
X169785048Y-95725000D02*
X170307552Y-95725000D01*
%TO.C,U1*%
X153622500Y-87205000D02*
X153622500Y-87655000D01*
X153622500Y-94425000D02*
X153622500Y-93975000D01*
X154072500Y-87205000D02*
X153622500Y-87205000D01*
X154072500Y-94425000D02*
X153622500Y-94425000D01*
X160392500Y-87205000D02*
X160842500Y-87205000D01*
X160392500Y-94425000D02*
X160842500Y-94425000D01*
X160842500Y-87205000D02*
X160842500Y-87655000D01*
X160842500Y-94425000D02*
X160842500Y-93975000D01*
X153032500Y-87655000D02*
X152692500Y-87185000D01*
X153372500Y-87185000D01*
X153032500Y-87655000D01*
G36*
X153032500Y-87655000D02*
G01*
X152692500Y-87185000D01*
X153372500Y-87185000D01*
X153032500Y-87655000D01*
G37*
%TO.C,J2*%
X152472500Y-73845000D02*
X153852500Y-73845000D01*
X152472500Y-75225000D02*
X152472500Y-73845000D01*
X152472500Y-76495000D02*
X152472500Y-84225000D01*
X152472500Y-76495000D02*
X155232500Y-76495000D01*
X152472500Y-84225000D02*
X155232500Y-84225000D01*
X155232500Y-76495000D02*
X155232500Y-84225000D01*
%TO.C,R2*%
X165360436Y-90525000D02*
X165814564Y-90525000D01*
X165360436Y-91995000D02*
X165814564Y-91995000D01*
%TO.C,U2*%
X170392500Y-85930000D02*
X174152500Y-85930000D01*
X170392500Y-92750000D02*
X174152500Y-92750000D01*
X174152500Y-85930000D02*
X174152500Y-87190000D01*
X174152500Y-92750000D02*
X174152500Y-91490000D01*
X169112500Y-86030000D02*
X168872500Y-85700000D01*
X169352500Y-85700000D01*
X169112500Y-86030000D01*
G36*
X169112500Y-86030000D02*
G01*
X168872500Y-85700000D01*
X169352500Y-85700000D01*
X169112500Y-86030000D01*
G37*
%TO.C,R4*%
X165360436Y-98415000D02*
X165814564Y-98415000D01*
X165360436Y-99885000D02*
X165814564Y-99885000D01*
%TO.C,D1*%
X172877500Y-94040000D02*
X172877500Y-95960000D01*
X172877500Y-95960000D02*
X175562500Y-95960000D01*
X175562500Y-94040000D02*
X172877500Y-94040000D01*
%TO.C,R6*%
X158360436Y-98265000D02*
X158814564Y-98265000D01*
X158360436Y-99735000D02*
X158814564Y-99735000D01*
%TO.C,J4*%
X161652500Y-73845000D02*
X163032500Y-73845000D01*
X161652500Y-75225000D02*
X161652500Y-73845000D01*
X161652500Y-76495000D02*
X161652500Y-84225000D01*
X161652500Y-76495000D02*
X164412500Y-76495000D01*
X161652500Y-84225000D02*
X164412500Y-84225000D01*
X164412500Y-76495000D02*
X164412500Y-84225000D01*
%TO.C,R3*%
X165360436Y-94470000D02*
X165814564Y-94470000D01*
X165360436Y-95940000D02*
X165814564Y-95940000D01*
%TD*%
M02*
