%TF.GenerationSoftware,KiCad,Pcbnew,9.0.2*%
%TF.CreationDate,2025-06-11T21:18:27+05:30*%
%TF.ProjectId,STM 32,53544d20-3332-42e6-9b69-6361645f7063,rev?*%
%TF.SameCoordinates,Original*%
%TF.FileFunction,Copper,L2,Bot*%
%TF.FilePolarity,Positive*%
%FSLAX46Y46*%
G04 Gerber Fmt 4.6, Leading zero omitted, Abs format (unit mm)*
G04 Created by KiCad (PCBNEW 9.0.2) date 2025-06-11 21:18:27*
%MOMM*%
%LPD*%
G01*
G04 APERTURE LIST*
%TA.AperFunction,ComponentPad*%
%ADD10R,1.700000X1.700000*%
%TD*%
%TA.AperFunction,ComponentPad*%
%ADD11C,1.700000*%
%TD*%
%TA.AperFunction,ComponentPad*%
%ADD12C,0.700000*%
%TD*%
%TA.AperFunction,ComponentPad*%
%ADD13O,2.400000X0.900000*%
%TD*%
%TA.AperFunction,ComponentPad*%
%ADD14O,1.700000X0.900000*%
%TD*%
%TA.AperFunction,ViaPad*%
%ADD15C,0.600000*%
%TD*%
%TA.AperFunction,Conductor*%
%ADD16C,0.200000*%
%TD*%
G04 APERTURE END LIST*
D10*
%TO.P,UART,1,Pin_1*%
%TO.N,/VCC*%
X104000000Y-113000000D03*
D11*
%TO.P,UART,2,Pin_2*%
%TO.N,/UART_TX*%
X101460000Y-113000000D03*
%TO.P,UART,3,Pin_3*%
%TO.N,/UART_RX*%
X98920000Y-113000000D03*
%TO.P,UART,4,Pin_4*%
%TO.N,GND*%
X96380000Y-113000000D03*
%TD*%
D10*
%TO.P,I2C,1,Pin_1*%
%TO.N,/VCC*%
X108500000Y-113000000D03*
D11*
%TO.P,I2C,2,Pin_2*%
%TO.N,/I2C_SDA*%
X111040000Y-113000000D03*
%TO.P,I2C,3,Pin_3*%
%TO.N,/I2C_SCL*%
X113580000Y-113000000D03*
%TO.P,I2C,4,Pin_4*%
%TO.N,GND*%
X116120000Y-113000000D03*
%TD*%
D12*
%TO.P,USB,A1,GND*%
%TO.N,GND*%
X118140000Y-103300000D03*
%TO.P,USB,A4,VBUS*%
%TO.N,VBUS*%
X118140000Y-102450000D03*
%TO.P,USB,A5,CC1*%
%TO.N,/USB_Det1*%
X118140000Y-101600000D03*
%TO.P,USB,A6,D+*%
%TO.N,/USB_D+*%
X118140000Y-100750000D03*
%TO.P,USB,A7,D-*%
%TO.N,/USB_D-*%
X118140000Y-99900000D03*
%TO.P,USB,A8*%
%TO.N,N/C*%
X118140000Y-99050000D03*
%TO.P,USB,A9,VBUS*%
%TO.N,VBUS*%
X118140000Y-98200000D03*
%TO.P,USB,A12,GND*%
%TO.N,GND*%
X118140000Y-97350000D03*
%TO.P,USB,B1,GND*%
X119490000Y-97350000D03*
%TO.P,USB,B4,VBUS*%
%TO.N,VBUS*%
X119490000Y-98200000D03*
%TO.P,USB,B5,CC2*%
%TO.N,/USB_Det2*%
X119490000Y-99050000D03*
%TO.P,USB,B6,D+*%
%TO.N,unconnected-(J1-D+-PadB6)*%
X119490000Y-99900000D03*
%TO.P,USB,B7,D-*%
%TO.N,unconnected-(J1-D--PadB7)*%
X119490000Y-100750000D03*
%TO.P,USB,B8*%
%TO.N,N/C*%
X119490000Y-101600000D03*
%TO.P,USB,B9,VBUS*%
%TO.N,VBUS*%
X119490000Y-102450000D03*
%TO.P,USB,B12,GND*%
%TO.N,GND*%
X119490000Y-103300000D03*
D13*
%TO.P,USB,S1,SHIELD*%
X119120000Y-104650000D03*
D14*
X122500000Y-104650000D03*
D13*
X119120000Y-96000000D03*
D14*
X122500000Y-96000000D03*
%TD*%
D10*
%TO.P,SWD,1,Pin_1*%
%TO.N,/VCC*%
X102960000Y-91000000D03*
D11*
%TO.P,SWD,2,Pin_2*%
%TO.N,/SWDIO*%
X105500000Y-91000000D03*
%TO.P,SWD,3,Pin_3*%
%TO.N,/SWCLK*%
X108040000Y-91000000D03*
%TO.P,SWD,4,Pin_4*%
%TO.N,GND*%
X110580000Y-91000000D03*
%TD*%
D15*
%TO.N,GND*%
X97380200Y-105663600D03*
X96775400Y-104092700D03*
%TO.N,/USB_D+*%
X112650600Y-98396800D03*
%TO.N,/SWCLK*%
X109162500Y-97551700D03*
%TO.N,/SWDIO*%
X107681300Y-97899200D03*
%TO.N,/UART_TX*%
X102658300Y-105334900D03*
%TO.N,/VCC*%
X103734700Y-98589600D03*
%TD*%
D16*
%TO.N,GND*%
X96380000Y-113000000D02*
X96380000Y-104488100D01*
X120571700Y-97350000D02*
X120571700Y-96000000D01*
X120571700Y-97350000D02*
X119490000Y-97350000D01*
X119512400Y-103300000D02*
X119490000Y-103300000D01*
X96380000Y-104488100D02*
X96775400Y-104092700D01*
X119120000Y-96000000D02*
X120571700Y-96000000D01*
X118140000Y-110980000D02*
X118140000Y-103300000D01*
X116120000Y-113000000D02*
X118140000Y-110980000D01*
X120571700Y-104359300D02*
X120571700Y-97350000D01*
X119120000Y-104650000D02*
X120571700Y-104650000D01*
X120571700Y-104359300D02*
X119512400Y-103300000D01*
X96775400Y-105058800D02*
X96775400Y-104092700D01*
X120571700Y-104650000D02*
X120571700Y-104359300D01*
X97380200Y-105663600D02*
X96775400Y-105058800D01*
%TO.N,/USB_D+*%
X118140000Y-100750000D02*
X115003800Y-100750000D01*
X112650600Y-98396800D02*
X112606700Y-98352900D01*
X112606700Y-98352900D02*
X112650600Y-98396800D01*
X115003800Y-100750000D02*
X112650600Y-98396800D01*
%TO.N,/SWCLK*%
X108040000Y-96429200D02*
X109162500Y-97551700D01*
X108040000Y-91000000D02*
X108040000Y-96429200D01*
X109162500Y-97550100D02*
X109162500Y-97551700D01*
X109162500Y-97551700D02*
X109162500Y-97550100D01*
%TO.N,/SWDIO*%
X105500000Y-91000000D02*
X105500000Y-95717900D01*
X105500000Y-95717900D02*
X107681300Y-97899200D01*
%TO.N,/UART_TX*%
X102658300Y-105334900D02*
X101460000Y-106533200D01*
X101460000Y-106533200D02*
X101460000Y-113000000D01*
%TO.N,/VCC*%
X103734700Y-98589600D02*
X103734700Y-92876400D01*
X104000000Y-98854900D02*
X103734700Y-98589600D01*
X103734700Y-92876400D02*
X102960000Y-92101700D01*
X102960000Y-91000000D02*
X102960000Y-92101700D01*
X104000000Y-113000000D02*
X104000000Y-98854900D01*
%TO.N,VBUS*%
X119383700Y-98200000D02*
X119490000Y-98200000D01*
X118815000Y-98768700D02*
X119383700Y-98200000D01*
X118140000Y-102450000D02*
X118215000Y-102450000D01*
X118815000Y-101850000D02*
X118815000Y-98768700D01*
X118215000Y-102450000D02*
X118815000Y-101850000D01*
%TD*%
M02*
