%TF.GenerationSoftware,KiCad,Pcbnew,9.0.2*%
%TF.CreationDate,2025-06-11T21:18:27+05:30*%
%TF.ProjectId,STM 32,53544d20-3332-42e6-9b69-6361645f7063,rev?*%
%TF.SameCoordinates,Original*%
%TF.FileFunction,Legend,Top*%
%TF.FilePolarity,Positive*%
%FSLAX46Y46*%
G04 Gerber Fmt 4.6, Leading zero omitted, Abs format (unit mm)*
G04 Created by KiCad (PCBNEW 9.0.2) date 2025-06-11 21:18:27*
%MOMM*%
%LPD*%
G01*
G04 APERTURE LIST*
G04 Aperture macros list*
%AMRoundRect*
0 Rectangle with rounded corners*
0 $1 Rounding radius*
0 $2 $3 $4 $5 $6 $7 $8 $9 X,Y pos of 4 corners*
0 Add a 4 corners polygon primitive as box body*
4,1,4,$2,$3,$4,$5,$6,$7,$8,$9,$2,$3,0*
0 Add four circle primitives for the rounded corners*
1,1,$1+$1,$2,$3*
1,1,$1+$1,$4,$5*
1,1,$1+$1,$6,$7*
1,1,$1+$1,$8,$9*
0 Add four rect primitives between the rounded corners*
20,1,$1+$1,$2,$3,$4,$5,0*
20,1,$1+$1,$4,$5,$6,$7,0*
20,1,$1+$1,$6,$7,$8,$9,0*
20,1,$1+$1,$8,$9,$2,$3,0*%
G04 Aperture macros list end*
%ADD10C,0.150000*%
%ADD11C,0.120000*%
%ADD12R,1.700000X1.700000*%
%ADD13C,1.700000*%
%ADD14RoundRect,0.250000X-0.250000X-0.475000X0.250000X-0.475000X0.250000X0.475000X-0.250000X0.475000X0*%
%ADD15RoundRect,0.075000X-0.662500X-0.075000X0.662500X-0.075000X0.662500X0.075000X-0.662500X0.075000X0*%
%ADD16RoundRect,0.075000X-0.075000X-0.662500X0.075000X-0.662500X0.075000X0.662500X-0.075000X0.662500X0*%
%ADD17RoundRect,0.250000X0.262500X0.450000X-0.262500X0.450000X-0.262500X-0.450000X0.262500X-0.450000X0*%
%ADD18RoundRect,0.250000X-0.262500X-0.450000X0.262500X-0.450000X0.262500X0.450000X-0.262500X0.450000X0*%
%ADD19RoundRect,0.250000X0.450000X0.350000X-0.450000X0.350000X-0.450000X-0.350000X0.450000X-0.350000X0*%
%ADD20C,2.100000*%
%ADD21C,0.700000*%
%ADD22O,2.400000X0.900000*%
%ADD23O,1.700000X0.900000*%
%ADD24RoundRect,0.250000X0.450000X-0.262500X0.450000X0.262500X-0.450000X0.262500X-0.450000X-0.262500X0*%
%ADD25RoundRect,0.375000X-0.625000X-0.375000X0.625000X-0.375000X0.625000X0.375000X-0.625000X0.375000X0*%
%ADD26RoundRect,0.500000X-0.500000X-1.400000X0.500000X-1.400000X0.500000X1.400000X-0.500000X1.400000X0*%
%ADD27RoundRect,0.250000X0.250000X0.475000X-0.250000X0.475000X-0.250000X-0.475000X0.250000X-0.475000X0*%
%ADD28RoundRect,0.243750X0.243750X0.456250X-0.243750X0.456250X-0.243750X-0.456250X0.243750X-0.456250X0*%
G04 APERTURE END LIST*
D10*
X96904762Y-109954819D02*
X96904762Y-110764342D01*
X96904762Y-110764342D02*
X96952381Y-110859580D01*
X96952381Y-110859580D02*
X97000000Y-110907200D01*
X97000000Y-110907200D02*
X97095238Y-110954819D01*
X97095238Y-110954819D02*
X97285714Y-110954819D01*
X97285714Y-110954819D02*
X97380952Y-110907200D01*
X97380952Y-110907200D02*
X97428571Y-110859580D01*
X97428571Y-110859580D02*
X97476190Y-110764342D01*
X97476190Y-110764342D02*
X97476190Y-109954819D01*
X97904762Y-110669104D02*
X98380952Y-110669104D01*
X97809524Y-110954819D02*
X98142857Y-109954819D01*
X98142857Y-109954819D02*
X98476190Y-110954819D01*
X99380952Y-110954819D02*
X99047619Y-110478628D01*
X98809524Y-110954819D02*
X98809524Y-109954819D01*
X98809524Y-109954819D02*
X99190476Y-109954819D01*
X99190476Y-109954819D02*
X99285714Y-110002438D01*
X99285714Y-110002438D02*
X99333333Y-110050057D01*
X99333333Y-110050057D02*
X99380952Y-110145295D01*
X99380952Y-110145295D02*
X99380952Y-110288152D01*
X99380952Y-110288152D02*
X99333333Y-110383390D01*
X99333333Y-110383390D02*
X99285714Y-110431009D01*
X99285714Y-110431009D02*
X99190476Y-110478628D01*
X99190476Y-110478628D02*
X98809524Y-110478628D01*
X99666667Y-109954819D02*
X100238095Y-109954819D01*
X99952381Y-110954819D02*
X99952381Y-109954819D01*
X90833333Y-110359580D02*
X90785714Y-110407200D01*
X90785714Y-110407200D02*
X90642857Y-110454819D01*
X90642857Y-110454819D02*
X90547619Y-110454819D01*
X90547619Y-110454819D02*
X90404762Y-110407200D01*
X90404762Y-110407200D02*
X90309524Y-110311961D01*
X90309524Y-110311961D02*
X90261905Y-110216723D01*
X90261905Y-110216723D02*
X90214286Y-110026247D01*
X90214286Y-110026247D02*
X90214286Y-109883390D01*
X90214286Y-109883390D02*
X90261905Y-109692914D01*
X90261905Y-109692914D02*
X90309524Y-109597676D01*
X90309524Y-109597676D02*
X90404762Y-109502438D01*
X90404762Y-109502438D02*
X90547619Y-109454819D01*
X90547619Y-109454819D02*
X90642857Y-109454819D01*
X90642857Y-109454819D02*
X90785714Y-109502438D01*
X90785714Y-109502438D02*
X90833333Y-109550057D01*
X91690476Y-109454819D02*
X91500000Y-109454819D01*
X91500000Y-109454819D02*
X91404762Y-109502438D01*
X91404762Y-109502438D02*
X91357143Y-109550057D01*
X91357143Y-109550057D02*
X91261905Y-109692914D01*
X91261905Y-109692914D02*
X91214286Y-109883390D01*
X91214286Y-109883390D02*
X91214286Y-110264342D01*
X91214286Y-110264342D02*
X91261905Y-110359580D01*
X91261905Y-110359580D02*
X91309524Y-110407200D01*
X91309524Y-110407200D02*
X91404762Y-110454819D01*
X91404762Y-110454819D02*
X91595238Y-110454819D01*
X91595238Y-110454819D02*
X91690476Y-110407200D01*
X91690476Y-110407200D02*
X91738095Y-110359580D01*
X91738095Y-110359580D02*
X91785714Y-110264342D01*
X91785714Y-110264342D02*
X91785714Y-110026247D01*
X91785714Y-110026247D02*
X91738095Y-109931009D01*
X91738095Y-109931009D02*
X91690476Y-109883390D01*
X91690476Y-109883390D02*
X91595238Y-109835771D01*
X91595238Y-109835771D02*
X91404762Y-109835771D01*
X91404762Y-109835771D02*
X91309524Y-109883390D01*
X91309524Y-109883390D02*
X91261905Y-109931009D01*
X91261905Y-109931009D02*
X91214286Y-110026247D01*
X114523810Y-110954819D02*
X114523810Y-109954819D01*
X114952381Y-110050057D02*
X115000000Y-110002438D01*
X115000000Y-110002438D02*
X115095238Y-109954819D01*
X115095238Y-109954819D02*
X115333333Y-109954819D01*
X115333333Y-109954819D02*
X115428571Y-110002438D01*
X115428571Y-110002438D02*
X115476190Y-110050057D01*
X115476190Y-110050057D02*
X115523809Y-110145295D01*
X115523809Y-110145295D02*
X115523809Y-110240533D01*
X115523809Y-110240533D02*
X115476190Y-110383390D01*
X115476190Y-110383390D02*
X114904762Y-110954819D01*
X114904762Y-110954819D02*
X115523809Y-110954819D01*
X116523809Y-110859580D02*
X116476190Y-110907200D01*
X116476190Y-110907200D02*
X116333333Y-110954819D01*
X116333333Y-110954819D02*
X116238095Y-110954819D01*
X116238095Y-110954819D02*
X116095238Y-110907200D01*
X116095238Y-110907200D02*
X116000000Y-110811961D01*
X116000000Y-110811961D02*
X115952381Y-110716723D01*
X115952381Y-110716723D02*
X115904762Y-110526247D01*
X115904762Y-110526247D02*
X115904762Y-110383390D01*
X115904762Y-110383390D02*
X115952381Y-110192914D01*
X115952381Y-110192914D02*
X116000000Y-110097676D01*
X116000000Y-110097676D02*
X116095238Y-110002438D01*
X116095238Y-110002438D02*
X116238095Y-109954819D01*
X116238095Y-109954819D02*
X116333333Y-109954819D01*
X116333333Y-109954819D02*
X116476190Y-110002438D01*
X116476190Y-110002438D02*
X116523809Y-110050057D01*
X104309524Y-94407200D02*
X104452381Y-94454819D01*
X104452381Y-94454819D02*
X104690476Y-94454819D01*
X104690476Y-94454819D02*
X104785714Y-94407200D01*
X104785714Y-94407200D02*
X104833333Y-94359580D01*
X104833333Y-94359580D02*
X104880952Y-94264342D01*
X104880952Y-94264342D02*
X104880952Y-94169104D01*
X104880952Y-94169104D02*
X104833333Y-94073866D01*
X104833333Y-94073866D02*
X104785714Y-94026247D01*
X104785714Y-94026247D02*
X104690476Y-93978628D01*
X104690476Y-93978628D02*
X104500000Y-93931009D01*
X104500000Y-93931009D02*
X104404762Y-93883390D01*
X104404762Y-93883390D02*
X104357143Y-93835771D01*
X104357143Y-93835771D02*
X104309524Y-93740533D01*
X104309524Y-93740533D02*
X104309524Y-93645295D01*
X104309524Y-93645295D02*
X104357143Y-93550057D01*
X104357143Y-93550057D02*
X104404762Y-93502438D01*
X104404762Y-93502438D02*
X104500000Y-93454819D01*
X104500000Y-93454819D02*
X104738095Y-93454819D01*
X104738095Y-93454819D02*
X104880952Y-93502438D01*
X105166667Y-93454819D02*
X105738095Y-93454819D01*
X105452381Y-94454819D02*
X105452381Y-93454819D01*
X106071429Y-94454819D02*
X106071429Y-93454819D01*
X106071429Y-93454819D02*
X106404762Y-94169104D01*
X106404762Y-94169104D02*
X106738095Y-93454819D01*
X106738095Y-93454819D02*
X106738095Y-94454819D01*
X107119048Y-93454819D02*
X107738095Y-93454819D01*
X107738095Y-93454819D02*
X107404762Y-93835771D01*
X107404762Y-93835771D02*
X107547619Y-93835771D01*
X107547619Y-93835771D02*
X107642857Y-93883390D01*
X107642857Y-93883390D02*
X107690476Y-93931009D01*
X107690476Y-93931009D02*
X107738095Y-94026247D01*
X107738095Y-94026247D02*
X107738095Y-94264342D01*
X107738095Y-94264342D02*
X107690476Y-94359580D01*
X107690476Y-94359580D02*
X107642857Y-94407200D01*
X107642857Y-94407200D02*
X107547619Y-94454819D01*
X107547619Y-94454819D02*
X107261905Y-94454819D01*
X107261905Y-94454819D02*
X107166667Y-94407200D01*
X107166667Y-94407200D02*
X107119048Y-94359580D01*
X108119048Y-93550057D02*
X108166667Y-93502438D01*
X108166667Y-93502438D02*
X108261905Y-93454819D01*
X108261905Y-93454819D02*
X108500000Y-93454819D01*
X108500000Y-93454819D02*
X108595238Y-93502438D01*
X108595238Y-93502438D02*
X108642857Y-93550057D01*
X108642857Y-93550057D02*
X108690476Y-93645295D01*
X108690476Y-93645295D02*
X108690476Y-93740533D01*
X108690476Y-93740533D02*
X108642857Y-93883390D01*
X108642857Y-93883390D02*
X108071429Y-94454819D01*
X108071429Y-94454819D02*
X108690476Y-94454819D01*
X106245833Y-110104819D02*
X105912500Y-109628628D01*
X105674405Y-110104819D02*
X105674405Y-109104819D01*
X105674405Y-109104819D02*
X106055357Y-109104819D01*
X106055357Y-109104819D02*
X106150595Y-109152438D01*
X106150595Y-109152438D02*
X106198214Y-109200057D01*
X106198214Y-109200057D02*
X106245833Y-109295295D01*
X106245833Y-109295295D02*
X106245833Y-109438152D01*
X106245833Y-109438152D02*
X106198214Y-109533390D01*
X106198214Y-109533390D02*
X106150595Y-109581009D01*
X106150595Y-109581009D02*
X106055357Y-109628628D01*
X106055357Y-109628628D02*
X105674405Y-109628628D01*
X107102976Y-109438152D02*
X107102976Y-110104819D01*
X106864881Y-109057200D02*
X106626786Y-109771485D01*
X106626786Y-109771485D02*
X107245833Y-109771485D01*
X114245833Y-92804819D02*
X113912500Y-92328628D01*
X113674405Y-92804819D02*
X113674405Y-91804819D01*
X113674405Y-91804819D02*
X114055357Y-91804819D01*
X114055357Y-91804819D02*
X114150595Y-91852438D01*
X114150595Y-91852438D02*
X114198214Y-91900057D01*
X114198214Y-91900057D02*
X114245833Y-91995295D01*
X114245833Y-91995295D02*
X114245833Y-92138152D01*
X114245833Y-92138152D02*
X114198214Y-92233390D01*
X114198214Y-92233390D02*
X114150595Y-92281009D01*
X114150595Y-92281009D02*
X114055357Y-92328628D01*
X114055357Y-92328628D02*
X113674405Y-92328628D01*
X114579167Y-91804819D02*
X115198214Y-91804819D01*
X115198214Y-91804819D02*
X114864881Y-92185771D01*
X114864881Y-92185771D02*
X115007738Y-92185771D01*
X115007738Y-92185771D02*
X115102976Y-92233390D01*
X115102976Y-92233390D02*
X115150595Y-92281009D01*
X115150595Y-92281009D02*
X115198214Y-92376247D01*
X115198214Y-92376247D02*
X115198214Y-92614342D01*
X115198214Y-92614342D02*
X115150595Y-92709580D01*
X115150595Y-92709580D02*
X115102976Y-92757200D01*
X115102976Y-92757200D02*
X115007738Y-92804819D01*
X115007738Y-92804819D02*
X114722024Y-92804819D01*
X114722024Y-92804819D02*
X114626786Y-92757200D01*
X114626786Y-92757200D02*
X114579167Y-92709580D01*
X93023809Y-94978628D02*
X93023809Y-95454819D01*
X92690476Y-94454819D02*
X93023809Y-94978628D01*
X93023809Y-94978628D02*
X93357142Y-94454819D01*
X94214285Y-95454819D02*
X93642857Y-95454819D01*
X93928571Y-95454819D02*
X93928571Y-94454819D01*
X93928571Y-94454819D02*
X93833333Y-94597676D01*
X93833333Y-94597676D02*
X93738095Y-94692914D01*
X93738095Y-94692914D02*
X93642857Y-94740533D01*
X90833333Y-112859580D02*
X90785714Y-112907200D01*
X90785714Y-112907200D02*
X90642857Y-112954819D01*
X90642857Y-112954819D02*
X90547619Y-112954819D01*
X90547619Y-112954819D02*
X90404762Y-112907200D01*
X90404762Y-112907200D02*
X90309524Y-112811961D01*
X90309524Y-112811961D02*
X90261905Y-112716723D01*
X90261905Y-112716723D02*
X90214286Y-112526247D01*
X90214286Y-112526247D02*
X90214286Y-112383390D01*
X90214286Y-112383390D02*
X90261905Y-112192914D01*
X90261905Y-112192914D02*
X90309524Y-112097676D01*
X90309524Y-112097676D02*
X90404762Y-112002438D01*
X90404762Y-112002438D02*
X90547619Y-111954819D01*
X90547619Y-111954819D02*
X90642857Y-111954819D01*
X90642857Y-111954819D02*
X90785714Y-112002438D01*
X90785714Y-112002438D02*
X90833333Y-112050057D01*
X91690476Y-112288152D02*
X91690476Y-112954819D01*
X91452381Y-111907200D02*
X91214286Y-112621485D01*
X91214286Y-112621485D02*
X91833333Y-112621485D01*
X91238095Y-90954819D02*
X91238095Y-89954819D01*
X91238095Y-90431009D02*
X91809523Y-90431009D01*
X91809523Y-90954819D02*
X91809523Y-89954819D01*
X92809523Y-90954819D02*
X92238095Y-90954819D01*
X92523809Y-90954819D02*
X92523809Y-89954819D01*
X92523809Y-89954819D02*
X92428571Y-90097676D01*
X92428571Y-90097676D02*
X92333333Y-90192914D01*
X92333333Y-90192914D02*
X92238095Y-90240533D01*
X121738095Y-93454819D02*
X121738095Y-94264342D01*
X121738095Y-94264342D02*
X121785714Y-94359580D01*
X121785714Y-94359580D02*
X121833333Y-94407200D01*
X121833333Y-94407200D02*
X121928571Y-94454819D01*
X121928571Y-94454819D02*
X122119047Y-94454819D01*
X122119047Y-94454819D02*
X122214285Y-94407200D01*
X122214285Y-94407200D02*
X122261904Y-94359580D01*
X122261904Y-94359580D02*
X122309523Y-94264342D01*
X122309523Y-94264342D02*
X122309523Y-93454819D01*
X122738095Y-94407200D02*
X122880952Y-94454819D01*
X122880952Y-94454819D02*
X123119047Y-94454819D01*
X123119047Y-94454819D02*
X123214285Y-94407200D01*
X123214285Y-94407200D02*
X123261904Y-94359580D01*
X123261904Y-94359580D02*
X123309523Y-94264342D01*
X123309523Y-94264342D02*
X123309523Y-94169104D01*
X123309523Y-94169104D02*
X123261904Y-94073866D01*
X123261904Y-94073866D02*
X123214285Y-94026247D01*
X123214285Y-94026247D02*
X123119047Y-93978628D01*
X123119047Y-93978628D02*
X122928571Y-93931009D01*
X122928571Y-93931009D02*
X122833333Y-93883390D01*
X122833333Y-93883390D02*
X122785714Y-93835771D01*
X122785714Y-93835771D02*
X122738095Y-93740533D01*
X122738095Y-93740533D02*
X122738095Y-93645295D01*
X122738095Y-93645295D02*
X122785714Y-93550057D01*
X122785714Y-93550057D02*
X122833333Y-93502438D01*
X122833333Y-93502438D02*
X122928571Y-93454819D01*
X122928571Y-93454819D02*
X123166666Y-93454819D01*
X123166666Y-93454819D02*
X123309523Y-93502438D01*
X124071428Y-93931009D02*
X124214285Y-93978628D01*
X124214285Y-93978628D02*
X124261904Y-94026247D01*
X124261904Y-94026247D02*
X124309523Y-94121485D01*
X124309523Y-94121485D02*
X124309523Y-94264342D01*
X124309523Y-94264342D02*
X124261904Y-94359580D01*
X124261904Y-94359580D02*
X124214285Y-94407200D01*
X124214285Y-94407200D02*
X124119047Y-94454819D01*
X124119047Y-94454819D02*
X123738095Y-94454819D01*
X123738095Y-94454819D02*
X123738095Y-93454819D01*
X123738095Y-93454819D02*
X124071428Y-93454819D01*
X124071428Y-93454819D02*
X124166666Y-93502438D01*
X124166666Y-93502438D02*
X124214285Y-93550057D01*
X124214285Y-93550057D02*
X124261904Y-93645295D01*
X124261904Y-93645295D02*
X124261904Y-93740533D01*
X124261904Y-93740533D02*
X124214285Y-93835771D01*
X124214285Y-93835771D02*
X124166666Y-93883390D01*
X124166666Y-93883390D02*
X124071428Y-93931009D01*
X124071428Y-93931009D02*
X123738095Y-93931009D01*
X123738095Y-109904819D02*
X123738095Y-108904819D01*
X123738095Y-109381009D02*
X124309523Y-109381009D01*
X124309523Y-109904819D02*
X124309523Y-108904819D01*
X124738095Y-109000057D02*
X124785714Y-108952438D01*
X124785714Y-108952438D02*
X124880952Y-108904819D01*
X124880952Y-108904819D02*
X125119047Y-108904819D01*
X125119047Y-108904819D02*
X125214285Y-108952438D01*
X125214285Y-108952438D02*
X125261904Y-109000057D01*
X125261904Y-109000057D02*
X125309523Y-109095295D01*
X125309523Y-109095295D02*
X125309523Y-109190533D01*
X125309523Y-109190533D02*
X125261904Y-109333390D01*
X125261904Y-109333390D02*
X124690476Y-109904819D01*
X124690476Y-109904819D02*
X125309523Y-109904819D01*
X110420833Y-106804819D02*
X110087500Y-106328628D01*
X109849405Y-106804819D02*
X109849405Y-105804819D01*
X109849405Y-105804819D02*
X110230357Y-105804819D01*
X110230357Y-105804819D02*
X110325595Y-105852438D01*
X110325595Y-105852438D02*
X110373214Y-105900057D01*
X110373214Y-105900057D02*
X110420833Y-105995295D01*
X110420833Y-105995295D02*
X110420833Y-106138152D01*
X110420833Y-106138152D02*
X110373214Y-106233390D01*
X110373214Y-106233390D02*
X110325595Y-106281009D01*
X110325595Y-106281009D02*
X110230357Y-106328628D01*
X110230357Y-106328628D02*
X109849405Y-106328628D01*
X111325595Y-105804819D02*
X110849405Y-105804819D01*
X110849405Y-105804819D02*
X110801786Y-106281009D01*
X110801786Y-106281009D02*
X110849405Y-106233390D01*
X110849405Y-106233390D02*
X110944643Y-106185771D01*
X110944643Y-106185771D02*
X111182738Y-106185771D01*
X111182738Y-106185771D02*
X111277976Y-106233390D01*
X111277976Y-106233390D02*
X111325595Y-106281009D01*
X111325595Y-106281009D02*
X111373214Y-106376247D01*
X111373214Y-106376247D02*
X111373214Y-106614342D01*
X111373214Y-106614342D02*
X111325595Y-106709580D01*
X111325595Y-106709580D02*
X111277976Y-106757200D01*
X111277976Y-106757200D02*
X111182738Y-106804819D01*
X111182738Y-106804819D02*
X110944643Y-106804819D01*
X110944643Y-106804819D02*
X110849405Y-106757200D01*
X110849405Y-106757200D02*
X110801786Y-106709580D01*
X113833333Y-106129819D02*
X113500000Y-105653628D01*
X113261905Y-106129819D02*
X113261905Y-105129819D01*
X113261905Y-105129819D02*
X113642857Y-105129819D01*
X113642857Y-105129819D02*
X113738095Y-105177438D01*
X113738095Y-105177438D02*
X113785714Y-105225057D01*
X113785714Y-105225057D02*
X113833333Y-105320295D01*
X113833333Y-105320295D02*
X113833333Y-105463152D01*
X113833333Y-105463152D02*
X113785714Y-105558390D01*
X113785714Y-105558390D02*
X113738095Y-105606009D01*
X113738095Y-105606009D02*
X113642857Y-105653628D01*
X113642857Y-105653628D02*
X113261905Y-105653628D01*
X114214286Y-105225057D02*
X114261905Y-105177438D01*
X114261905Y-105177438D02*
X114357143Y-105129819D01*
X114357143Y-105129819D02*
X114595238Y-105129819D01*
X114595238Y-105129819D02*
X114690476Y-105177438D01*
X114690476Y-105177438D02*
X114738095Y-105225057D01*
X114738095Y-105225057D02*
X114785714Y-105320295D01*
X114785714Y-105320295D02*
X114785714Y-105415533D01*
X114785714Y-105415533D02*
X114738095Y-105558390D01*
X114738095Y-105558390D02*
X114166667Y-106129819D01*
X114166667Y-106129819D02*
X114785714Y-106129819D01*
X113833333Y-96629819D02*
X113500000Y-96153628D01*
X113261905Y-96629819D02*
X113261905Y-95629819D01*
X113261905Y-95629819D02*
X113642857Y-95629819D01*
X113642857Y-95629819D02*
X113738095Y-95677438D01*
X113738095Y-95677438D02*
X113785714Y-95725057D01*
X113785714Y-95725057D02*
X113833333Y-95820295D01*
X113833333Y-95820295D02*
X113833333Y-95963152D01*
X113833333Y-95963152D02*
X113785714Y-96058390D01*
X113785714Y-96058390D02*
X113738095Y-96106009D01*
X113738095Y-96106009D02*
X113642857Y-96153628D01*
X113642857Y-96153628D02*
X113261905Y-96153628D01*
X114785714Y-96629819D02*
X114214286Y-96629819D01*
X114500000Y-96629819D02*
X114500000Y-95629819D01*
X114500000Y-95629819D02*
X114404762Y-95772676D01*
X114404762Y-95772676D02*
X114309524Y-95867914D01*
X114309524Y-95867914D02*
X114214286Y-95915533D01*
X96859580Y-98666666D02*
X96907200Y-98714285D01*
X96907200Y-98714285D02*
X96954819Y-98857142D01*
X96954819Y-98857142D02*
X96954819Y-98952380D01*
X96954819Y-98952380D02*
X96907200Y-99095237D01*
X96907200Y-99095237D02*
X96811961Y-99190475D01*
X96811961Y-99190475D02*
X96716723Y-99238094D01*
X96716723Y-99238094D02*
X96526247Y-99285713D01*
X96526247Y-99285713D02*
X96383390Y-99285713D01*
X96383390Y-99285713D02*
X96192914Y-99238094D01*
X96192914Y-99238094D02*
X96097676Y-99190475D01*
X96097676Y-99190475D02*
X96002438Y-99095237D01*
X96002438Y-99095237D02*
X95954819Y-98952380D01*
X95954819Y-98952380D02*
X95954819Y-98857142D01*
X95954819Y-98857142D02*
X96002438Y-98714285D01*
X96002438Y-98714285D02*
X96050057Y-98666666D01*
X95954819Y-97761904D02*
X95954819Y-98238094D01*
X95954819Y-98238094D02*
X96431009Y-98285713D01*
X96431009Y-98285713D02*
X96383390Y-98238094D01*
X96383390Y-98238094D02*
X96335771Y-98142856D01*
X96335771Y-98142856D02*
X96335771Y-97904761D01*
X96335771Y-97904761D02*
X96383390Y-97809523D01*
X96383390Y-97809523D02*
X96431009Y-97761904D01*
X96431009Y-97761904D02*
X96526247Y-97714285D01*
X96526247Y-97714285D02*
X96764342Y-97714285D01*
X96764342Y-97714285D02*
X96859580Y-97761904D01*
X96859580Y-97761904D02*
X96907200Y-97809523D01*
X96907200Y-97809523D02*
X96954819Y-97904761D01*
X96954819Y-97904761D02*
X96954819Y-98142856D01*
X96954819Y-98142856D02*
X96907200Y-98238094D01*
X96907200Y-98238094D02*
X96859580Y-98285713D01*
X87738095Y-99454819D02*
X87738095Y-100264342D01*
X87738095Y-100264342D02*
X87785714Y-100359580D01*
X87785714Y-100359580D02*
X87833333Y-100407200D01*
X87833333Y-100407200D02*
X87928571Y-100454819D01*
X87928571Y-100454819D02*
X88119047Y-100454819D01*
X88119047Y-100454819D02*
X88214285Y-100407200D01*
X88214285Y-100407200D02*
X88261904Y-100359580D01*
X88261904Y-100359580D02*
X88309523Y-100264342D01*
X88309523Y-100264342D02*
X88309523Y-99454819D01*
X88738095Y-99550057D02*
X88785714Y-99502438D01*
X88785714Y-99502438D02*
X88880952Y-99454819D01*
X88880952Y-99454819D02*
X89119047Y-99454819D01*
X89119047Y-99454819D02*
X89214285Y-99502438D01*
X89214285Y-99502438D02*
X89261904Y-99550057D01*
X89261904Y-99550057D02*
X89309523Y-99645295D01*
X89309523Y-99645295D02*
X89309523Y-99740533D01*
X89309523Y-99740533D02*
X89261904Y-99883390D01*
X89261904Y-99883390D02*
X88690476Y-100454819D01*
X88690476Y-100454819D02*
X89309523Y-100454819D01*
X96959580Y-103666666D02*
X97007200Y-103714285D01*
X97007200Y-103714285D02*
X97054819Y-103857142D01*
X97054819Y-103857142D02*
X97054819Y-103952380D01*
X97054819Y-103952380D02*
X97007200Y-104095237D01*
X97007200Y-104095237D02*
X96911961Y-104190475D01*
X96911961Y-104190475D02*
X96816723Y-104238094D01*
X96816723Y-104238094D02*
X96626247Y-104285713D01*
X96626247Y-104285713D02*
X96483390Y-104285713D01*
X96483390Y-104285713D02*
X96292914Y-104238094D01*
X96292914Y-104238094D02*
X96197676Y-104190475D01*
X96197676Y-104190475D02*
X96102438Y-104095237D01*
X96102438Y-104095237D02*
X96054819Y-103952380D01*
X96054819Y-103952380D02*
X96054819Y-103857142D01*
X96054819Y-103857142D02*
X96102438Y-103714285D01*
X96102438Y-103714285D02*
X96150057Y-103666666D01*
X96150057Y-103285713D02*
X96102438Y-103238094D01*
X96102438Y-103238094D02*
X96054819Y-103142856D01*
X96054819Y-103142856D02*
X96054819Y-102904761D01*
X96054819Y-102904761D02*
X96102438Y-102809523D01*
X96102438Y-102809523D02*
X96150057Y-102761904D01*
X96150057Y-102761904D02*
X96245295Y-102714285D01*
X96245295Y-102714285D02*
X96340533Y-102714285D01*
X96340533Y-102714285D02*
X96483390Y-102761904D01*
X96483390Y-102761904D02*
X97054819Y-103333332D01*
X97054819Y-103333332D02*
X97054819Y-102714285D01*
X96859580Y-96166666D02*
X96907200Y-96214285D01*
X96907200Y-96214285D02*
X96954819Y-96357142D01*
X96954819Y-96357142D02*
X96954819Y-96452380D01*
X96954819Y-96452380D02*
X96907200Y-96595237D01*
X96907200Y-96595237D02*
X96811961Y-96690475D01*
X96811961Y-96690475D02*
X96716723Y-96738094D01*
X96716723Y-96738094D02*
X96526247Y-96785713D01*
X96526247Y-96785713D02*
X96383390Y-96785713D01*
X96383390Y-96785713D02*
X96192914Y-96738094D01*
X96192914Y-96738094D02*
X96097676Y-96690475D01*
X96097676Y-96690475D02*
X96002438Y-96595237D01*
X96002438Y-96595237D02*
X95954819Y-96452380D01*
X95954819Y-96452380D02*
X95954819Y-96357142D01*
X95954819Y-96357142D02*
X96002438Y-96214285D01*
X96002438Y-96214285D02*
X96050057Y-96166666D01*
X95954819Y-95833332D02*
X95954819Y-95214285D01*
X95954819Y-95214285D02*
X96335771Y-95547618D01*
X96335771Y-95547618D02*
X96335771Y-95404761D01*
X96335771Y-95404761D02*
X96383390Y-95309523D01*
X96383390Y-95309523D02*
X96431009Y-95261904D01*
X96431009Y-95261904D02*
X96526247Y-95214285D01*
X96526247Y-95214285D02*
X96764342Y-95214285D01*
X96764342Y-95214285D02*
X96859580Y-95261904D01*
X96859580Y-95261904D02*
X96907200Y-95309523D01*
X96907200Y-95309523D02*
X96954819Y-95404761D01*
X96954819Y-95404761D02*
X96954819Y-95690475D01*
X96954819Y-95690475D02*
X96907200Y-95785713D01*
X96907200Y-95785713D02*
X96859580Y-95833332D01*
X117761905Y-89954819D02*
X117761905Y-88954819D01*
X117761905Y-88954819D02*
X118000000Y-88954819D01*
X118000000Y-88954819D02*
X118142857Y-89002438D01*
X118142857Y-89002438D02*
X118238095Y-89097676D01*
X118238095Y-89097676D02*
X118285714Y-89192914D01*
X118285714Y-89192914D02*
X118333333Y-89383390D01*
X118333333Y-89383390D02*
X118333333Y-89526247D01*
X118333333Y-89526247D02*
X118285714Y-89716723D01*
X118285714Y-89716723D02*
X118238095Y-89811961D01*
X118238095Y-89811961D02*
X118142857Y-89907200D01*
X118142857Y-89907200D02*
X118000000Y-89954819D01*
X118000000Y-89954819D02*
X117761905Y-89954819D01*
X119285714Y-89954819D02*
X118714286Y-89954819D01*
X119000000Y-89954819D02*
X119000000Y-88954819D01*
X119000000Y-88954819D02*
X118904762Y-89097676D01*
X118904762Y-89097676D02*
X118809524Y-89192914D01*
X118809524Y-89192914D02*
X118714286Y-89240533D01*
X96959580Y-101216666D02*
X97007200Y-101264285D01*
X97007200Y-101264285D02*
X97054819Y-101407142D01*
X97054819Y-101407142D02*
X97054819Y-101502380D01*
X97054819Y-101502380D02*
X97007200Y-101645237D01*
X97007200Y-101645237D02*
X96911961Y-101740475D01*
X96911961Y-101740475D02*
X96816723Y-101788094D01*
X96816723Y-101788094D02*
X96626247Y-101835713D01*
X96626247Y-101835713D02*
X96483390Y-101835713D01*
X96483390Y-101835713D02*
X96292914Y-101788094D01*
X96292914Y-101788094D02*
X96197676Y-101740475D01*
X96197676Y-101740475D02*
X96102438Y-101645237D01*
X96102438Y-101645237D02*
X96054819Y-101502380D01*
X96054819Y-101502380D02*
X96054819Y-101407142D01*
X96054819Y-101407142D02*
X96102438Y-101264285D01*
X96102438Y-101264285D02*
X96150057Y-101216666D01*
X97054819Y-100264285D02*
X97054819Y-100835713D01*
X97054819Y-100549999D02*
X96054819Y-100549999D01*
X96054819Y-100549999D02*
X96197676Y-100645237D01*
X96197676Y-100645237D02*
X96292914Y-100740475D01*
X96292914Y-100740475D02*
X96340533Y-100835713D01*
X100987200Y-92357142D02*
X101034819Y-92214285D01*
X101034819Y-92214285D02*
X101034819Y-91976190D01*
X101034819Y-91976190D02*
X100987200Y-91880952D01*
X100987200Y-91880952D02*
X100939580Y-91833333D01*
X100939580Y-91833333D02*
X100844342Y-91785714D01*
X100844342Y-91785714D02*
X100749104Y-91785714D01*
X100749104Y-91785714D02*
X100653866Y-91833333D01*
X100653866Y-91833333D02*
X100606247Y-91880952D01*
X100606247Y-91880952D02*
X100558628Y-91976190D01*
X100558628Y-91976190D02*
X100511009Y-92166666D01*
X100511009Y-92166666D02*
X100463390Y-92261904D01*
X100463390Y-92261904D02*
X100415771Y-92309523D01*
X100415771Y-92309523D02*
X100320533Y-92357142D01*
X100320533Y-92357142D02*
X100225295Y-92357142D01*
X100225295Y-92357142D02*
X100130057Y-92309523D01*
X100130057Y-92309523D02*
X100082438Y-92261904D01*
X100082438Y-92261904D02*
X100034819Y-92166666D01*
X100034819Y-92166666D02*
X100034819Y-91928571D01*
X100034819Y-91928571D02*
X100082438Y-91785714D01*
X100034819Y-91452380D02*
X101034819Y-91214285D01*
X101034819Y-91214285D02*
X100320533Y-91023809D01*
X100320533Y-91023809D02*
X101034819Y-90833333D01*
X101034819Y-90833333D02*
X100034819Y-90595238D01*
X101034819Y-90214285D02*
X100034819Y-90214285D01*
X100034819Y-90214285D02*
X100034819Y-89976190D01*
X100034819Y-89976190D02*
X100082438Y-89833333D01*
X100082438Y-89833333D02*
X100177676Y-89738095D01*
X100177676Y-89738095D02*
X100272914Y-89690476D01*
X100272914Y-89690476D02*
X100463390Y-89642857D01*
X100463390Y-89642857D02*
X100606247Y-89642857D01*
X100606247Y-89642857D02*
X100796723Y-89690476D01*
X100796723Y-89690476D02*
X100891961Y-89738095D01*
X100891961Y-89738095D02*
X100987200Y-89833333D01*
X100987200Y-89833333D02*
X101034819Y-89976190D01*
X101034819Y-89976190D02*
X101034819Y-90214285D01*
D11*
%TO.C,UART*%
X95000000Y-111620000D02*
X95000000Y-114380000D01*
X102730000Y-111620000D02*
X95000000Y-111620000D01*
X102730000Y-111620000D02*
X102730000Y-114380000D01*
X102730000Y-114380000D02*
X95000000Y-114380000D01*
X104000000Y-111620000D02*
X105380000Y-111620000D01*
X105380000Y-111620000D02*
X105380000Y-113000000D01*
%TO.C,C6*%
X87788748Y-109265000D02*
X88311252Y-109265000D01*
X87788748Y-110735000D02*
X88311252Y-110735000D01*
%TO.C,I2C*%
X107120000Y-114380000D02*
X107120000Y-113000000D01*
X108500000Y-114380000D02*
X107120000Y-114380000D01*
X109770000Y-111620000D02*
X117500000Y-111620000D01*
X109770000Y-114380000D02*
X109770000Y-111620000D01*
X109770000Y-114380000D02*
X117500000Y-114380000D01*
X117500000Y-114380000D02*
X117500000Y-111620000D01*
%TO.C,STM32*%
X102640000Y-96727500D02*
X102640000Y-97177500D01*
X102640000Y-103947500D02*
X102640000Y-103497500D01*
X103090000Y-96727500D02*
X102640000Y-96727500D01*
X103090000Y-103947500D02*
X102640000Y-103947500D01*
X109410000Y-96727500D02*
X109860000Y-96727500D01*
X109410000Y-103947500D02*
X109860000Y-103947500D01*
X109860000Y-96727500D02*
X109860000Y-97177500D01*
X109860000Y-103947500D02*
X109860000Y-103497500D01*
X102050000Y-97177500D02*
X101710000Y-96707500D01*
X102390000Y-96707500D01*
X102050000Y-97177500D01*
G36*
X102050000Y-97177500D02*
G01*
X101710000Y-96707500D01*
X102390000Y-96707500D01*
X102050000Y-97177500D01*
G37*
%TO.C,R4*%
X106639564Y-107265000D02*
X106185436Y-107265000D01*
X106639564Y-108735000D02*
X106185436Y-108735000D01*
%TO.C,R3*%
X114185436Y-93265000D02*
X114639564Y-93265000D01*
X114185436Y-94735000D02*
X114639564Y-94735000D01*
%TO.C,Y1*%
X95460000Y-96140000D02*
X91340000Y-96140000D01*
X95460000Y-99560000D02*
X95460000Y-96140000D01*
%TO.C,C4*%
X87788748Y-111765000D02*
X88311252Y-111765000D01*
X87788748Y-113235000D02*
X88311252Y-113235000D01*
%TO.C,USB*%
X117460000Y-104800000D02*
X117460000Y-95850000D01*
X120540000Y-95730000D02*
X121440000Y-95730000D01*
X120540000Y-104920000D02*
X121440000Y-104920000D01*
X124140000Y-95730000D02*
X126870000Y-95730000D01*
X124140000Y-104920000D02*
X126870000Y-104920000D01*
X126870000Y-104920000D02*
X126870000Y-95730000D01*
%TO.C,R5*%
X110360436Y-107265000D02*
X110814564Y-107265000D01*
X110360436Y-108735000D02*
X110814564Y-108735000D01*
%TO.C,R2*%
X113265000Y-103314564D02*
X113265000Y-102860436D01*
X114735000Y-103314564D02*
X114735000Y-102860436D01*
%TO.C,R1*%
X113265000Y-98814564D02*
X113265000Y-98360436D01*
X114735000Y-98814564D02*
X114735000Y-98360436D01*
%TO.C,C5*%
X98788748Y-97765000D02*
X99311252Y-97765000D01*
X98788748Y-99235000D02*
X99311252Y-99235000D01*
%TO.C,U2*%
X89000000Y-101090000D02*
X92760000Y-101090000D01*
X89000000Y-107910000D02*
X92760000Y-107910000D01*
X92760000Y-101090000D02*
X92760000Y-102350000D01*
X92760000Y-107910000D02*
X92760000Y-106650000D01*
X87720000Y-101190000D02*
X87480000Y-100860000D01*
X87960000Y-100860000D01*
X87720000Y-101190000D01*
G36*
X87720000Y-101190000D02*
G01*
X87480000Y-100860000D01*
X87960000Y-100860000D01*
X87720000Y-101190000D01*
G37*
%TO.C,C2*%
X99311252Y-102765000D02*
X98788748Y-102765000D01*
X99311252Y-104235000D02*
X98788748Y-104235000D01*
%TO.C,C3*%
X99311252Y-95265000D02*
X98788748Y-95265000D01*
X99311252Y-96735000D02*
X98788748Y-96735000D01*
%TO.C,D1*%
X117437500Y-92960000D02*
X120122500Y-92960000D01*
X120122500Y-91040000D02*
X117437500Y-91040000D01*
X120122500Y-92960000D02*
X120122500Y-91040000D01*
%TO.C,C1*%
X99311252Y-100315000D02*
X98788748Y-100315000D01*
X99311252Y-101785000D02*
X98788748Y-101785000D01*
%TO.C,SWD*%
X101580000Y-92380000D02*
X101580000Y-91000000D01*
X102960000Y-92380000D02*
X101580000Y-92380000D01*
X104230000Y-89620000D02*
X111960000Y-89620000D01*
X104230000Y-92380000D02*
X104230000Y-89620000D01*
X104230000Y-92380000D02*
X111960000Y-92380000D01*
X111960000Y-92380000D02*
X111960000Y-89620000D01*
%TD*%
%LPC*%
D12*
%TO.C,UART*%
X104000000Y-113000000D03*
D13*
X101460000Y-113000000D03*
X98920000Y-113000000D03*
X96380000Y-113000000D03*
%TD*%
D14*
%TO.C,C6*%
X87100000Y-110000000D03*
X89000000Y-110000000D03*
%TD*%
D12*
%TO.C,I2C*%
X108500000Y-113000000D03*
D13*
X111040000Y-113000000D03*
X113580000Y-113000000D03*
X116120000Y-113000000D03*
%TD*%
D15*
%TO.C,STM32*%
X102087500Y-97587500D03*
X102087500Y-98087500D03*
X102087500Y-98587500D03*
X102087500Y-99087500D03*
X102087500Y-99587500D03*
X102087500Y-100087500D03*
X102087500Y-100587500D03*
X102087500Y-101087500D03*
X102087500Y-101587500D03*
X102087500Y-102087500D03*
X102087500Y-102587500D03*
X102087500Y-103087500D03*
D16*
X103500000Y-104500000D03*
X104000000Y-104500000D03*
X104500000Y-104500000D03*
X105000000Y-104500000D03*
X105500000Y-104500000D03*
X106000000Y-104500000D03*
X106500000Y-104500000D03*
X107000000Y-104500000D03*
X107500000Y-104500000D03*
X108000000Y-104500000D03*
X108500000Y-104500000D03*
X109000000Y-104500000D03*
D15*
X110412500Y-103087500D03*
X110412500Y-102587500D03*
X110412500Y-102087500D03*
X110412500Y-101587500D03*
X110412500Y-101087500D03*
X110412500Y-100587500D03*
X110412500Y-100087500D03*
X110412500Y-99587500D03*
X110412500Y-99087500D03*
X110412500Y-98587500D03*
X110412500Y-98087500D03*
X110412500Y-97587500D03*
D16*
X109000000Y-96175000D03*
X108500000Y-96175000D03*
X108000000Y-96175000D03*
X107500000Y-96175000D03*
X107000000Y-96175000D03*
X106500000Y-96175000D03*
X106000000Y-96175000D03*
X105500000Y-96175000D03*
X105000000Y-96175000D03*
X104500000Y-96175000D03*
X104000000Y-96175000D03*
X103500000Y-96175000D03*
%TD*%
D17*
%TO.C,R4*%
X107325000Y-108000000D03*
X105500000Y-108000000D03*
%TD*%
D18*
%TO.C,R3*%
X113500000Y-94000000D03*
X115325000Y-94000000D03*
%TD*%
D19*
%TO.C,Y1*%
X94500000Y-97000000D03*
X92300000Y-97000000D03*
X92300000Y-98700000D03*
X94500000Y-98700000D03*
%TD*%
D14*
%TO.C,C4*%
X87100000Y-112500000D03*
X89000000Y-112500000D03*
%TD*%
D20*
%TO.C,H1*%
X88500000Y-91500000D03*
%TD*%
D21*
%TO.C,USB*%
X118140000Y-103300000D03*
X118140000Y-102450000D03*
X118140000Y-101600000D03*
X118140000Y-100750000D03*
X118140000Y-99900000D03*
X118140000Y-99050000D03*
X118140000Y-98200000D03*
X118140000Y-97350000D03*
X119490000Y-97350000D03*
X119490000Y-98200000D03*
X119490000Y-99050000D03*
X119490000Y-99900000D03*
X119490000Y-100750000D03*
X119490000Y-101600000D03*
X119490000Y-102450000D03*
X119490000Y-103300000D03*
D22*
X119120000Y-104650000D03*
D23*
X122500000Y-104650000D03*
D22*
X119120000Y-96000000D03*
D23*
X122500000Y-96000000D03*
%TD*%
D20*
%TO.C,H2*%
X124500000Y-112500000D03*
%TD*%
D18*
%TO.C,R5*%
X109675000Y-108000000D03*
X111500000Y-108000000D03*
%TD*%
D24*
%TO.C,R2*%
X114000000Y-104000000D03*
X114000000Y-102175000D03*
%TD*%
%TO.C,R1*%
X114000000Y-99500000D03*
X114000000Y-97675000D03*
%TD*%
D14*
%TO.C,C5*%
X98100000Y-98500000D03*
X100000000Y-98500000D03*
%TD*%
D25*
%TO.C,U2*%
X87700000Y-102200000D03*
X87700000Y-104500000D03*
D26*
X94000000Y-104500000D03*
D25*
X87700000Y-106800000D03*
%TD*%
D27*
%TO.C,C2*%
X100000000Y-103500000D03*
X98100000Y-103500000D03*
%TD*%
%TO.C,C3*%
X100000000Y-96000000D03*
X98100000Y-96000000D03*
%TD*%
D28*
%TO.C,D1*%
X119375000Y-92000000D03*
X117500000Y-92000000D03*
%TD*%
D27*
%TO.C,C1*%
X100000000Y-101050000D03*
X98100000Y-101050000D03*
%TD*%
D12*
%TO.C,SWD*%
X102960000Y-91000000D03*
D13*
X105500000Y-91000000D03*
X108040000Y-91000000D03*
X110580000Y-91000000D03*
%TD*%
%LPD*%
M02*
